<?xml version="1.0" encoding="utf-8"?>
<!-- Generator: Adobe Illustrator 21.0.0, SVG Export Plug-In . SVG Version: 6.00 Build 0)  -->
<svg version="1.1" id="Calque_1" xmlns="http://www.w3.org/2000/svg" xmlns:xlink="http://www.w3.org/1999/xlink" x="0px" y="0px"
	 viewBox="0 0 300 213" style="enable-background:new 0 0 300 213;" xml:space="preserve">
<style type="text/css">
	.st0{fill:#FFFFFF;}
	.st1{fill:#C63F3C;}
	.st2{fill:#22E3D3;}
</style>
<g>
	<g>
		<g>
			<g>
				<path class="st0" d="M53.7,161.5h-3.1v-5.4h3.1V161.5z M53.7,187.5h-3.1v-23.3h3.1V187.5z"/>
				<path class="st0" d="M90,179.5c-1.4,2.7-3.4,4.8-5.9,6.3c-2.5,1.5-5.3,2.3-8.4,2.3c-4.4,0.1-8.2-1.5-11.4-4.8
					c-3.2-3.2-4.8-7.1-4.8-11.6c0-4.6,1.6-8.5,4.8-11.5c3.1-3,6.9-4.6,11.4-4.5c3.1,0,6,0.8,8.5,2.4c2.4,1.6,4.4,3.6,5.7,6.2h-3.5
					c-2.6-3.8-6.3-5.7-10.9-5.6c-3.5,0-6.5,1.3-9,3.8c-2.5,2.5-3.8,5.5-3.9,9.1c-0.1,3.7,1.2,6.8,3.8,9.5c2.6,2.7,5.7,4,9.4,4
					c2.1,0,4.2-0.6,6.2-1.7c1.9-1.1,3.4-2.4,4.5-4H90z"/>
				<path class="st0" d="M115.5,175.9c0,3.3-1.2,6.2-3.7,8.7c-2.4,2.4-5.3,3.6-8.7,3.5c-3.2-0.1-6-1.3-8.2-3.7
					c-2.2-2.4-3.4-5.2-3.4-8.4c0-3.4,1.2-6.3,3.6-8.8c2.4-2.4,5.3-3.6,8.7-3.5c3.2,0.1,6,1.4,8.2,3.7
					C114.4,169.8,115.5,172.6,115.5,175.9z M112.4,175.7c-0.1-2.5-1-4.6-2.6-6.3c-1.7-1.7-3.7-2.6-6.1-2.6c-2.5,0-4.6,0.8-6.3,2.6
					c-1.7,1.8-2.6,3.9-2.7,6.4c-0.1,2.5,0.8,4.6,2.4,6.5c1.7,1.8,3.7,2.8,6.1,2.9c2.6,0.1,4.8-0.8,6.6-2.7
					C111.6,180.5,112.5,178.2,112.4,175.7z"/>
				<path class="st0" d="M154.6,187.5h-3.2v-14.3c0-1.8-0.5-3.3-1.6-4.6c-1-1.3-2.4-1.9-4.1-1.9c-1.7,0-3.2,0.6-4.4,1.7
					c-1.2,1.1-1.9,2.5-1.9,4.2v15h-3.3v-15c0-1.7-0.6-3-1.9-4.2c-1.2-1.1-2.7-1.7-4.4-1.7c-1.7,0-3,0.6-4,1.9
					c-1,1.3-1.5,2.8-1.5,4.6v14.3h-3.2v-13.9c0-2.9,0.8-5.2,2.5-7c1.6-1.7,3.6-2.6,6.1-2.8c3.4-0.3,6.1,1.2,8.1,4.3
					c2-3.2,4.7-4.6,8.1-4.3c2.5,0.2,4.6,1.2,6.2,2.8c1.7,1.8,2.5,4.1,2.5,7V187.5z"/>
				<path class="st0" d="M184.4,175.9c0,3.4-1.2,6.3-3.6,8.8c-2.4,2.4-5.3,3.6-8.7,3.5c-3.4-0.1-6.3-1.5-8.6-4.1v11.7h-3v-19.6
					c0-0.1,0-0.1,0-0.2c0-3.3,1.2-6.2,3.7-8.7c2.4-2.4,5.3-3.6,8.7-3.5c3.2,0.1,6,1.3,8.2,3.7C183.3,169.8,184.4,172.6,184.4,175.9z
					 M181.3,176.1c0-2.5-0.8-4.6-2.5-6.5c-1.7-1.8-3.7-2.8-6.1-2.9c-2.6-0.1-4.8,0.8-6.6,2.7c-1.8,1.9-2.7,4.2-2.6,6.7
					c0.1,2.5,0.9,4.6,2.6,6.3c1.7,1.7,3.7,2.6,6.1,2.6c2.5,0,4.6-0.9,6.3-2.6S181.2,178.6,181.3,176.1z"/>
				<path class="st0" d="M213.8,175.9v0.2v11.5h-3.1v-3.6c-2.5,2.9-5.6,4.3-9.3,4.2c-3.2-0.1-5.9-1.3-8.2-3.7
					c-2.2-2.4-3.4-5.2-3.4-8.4c0-3.4,1.2-6.3,3.6-8.8c2.4-2.4,5.3-3.6,8.7-3.4c3.3,0.1,6,1.4,8.3,3.7
					C212.8,169.8,213.9,172.6,213.8,175.9z M210.7,175.6c-0.1-2.5-0.9-4.6-2.6-6.3c-1.7-1.7-3.7-2.6-6.1-2.6c-2.5,0-4.6,0.9-6.3,2.6
					c-1.7,1.7-2.6,3.9-2.7,6.3c-0.1,2.5,0.8,4.6,2.4,6.4c1.7,1.8,3.7,2.8,6.1,2.9c2.6,0.1,4.8-0.8,6.6-2.7
					C209.8,180.5,210.7,178.2,210.7,175.6z"/>
				<path class="st0" d="M234.3,180.6c0.2,2.1-0.6,3.9-2.2,5.4c-1.6,1.5-3.5,2.2-5.6,2.1c-2-0.1-3.6-0.9-4.9-2.4
					c-1.3-1.4-2-3.2-2-5.1h3.2v0.8c0,0.8,0.4,1.6,1.3,2.5c0.9,0.9,1.8,1.3,2.8,1.2c1.3,0,2.3-0.4,3.1-1.2c0.7-0.7,1-1.6,1.1-2.8
					c0-2-1.1-3.4-3.4-4.1l-2.7-0.9c-2.9-0.9-4.4-2.8-4.5-5.8c-0.1-1.8,0.5-3.3,1.8-4.6c1.3-1.3,2.9-2,4.7-2c1.6-0.1,3.1,0.4,4.4,1.5
					c1.4,1.1,2.1,2.5,2.2,4.1v0.7h-3.3v-0.5c0-0.8-0.3-1.5-1-2c-0.7-0.5-1.5-0.8-2.4-0.8c-0.9,0-1.6,0.3-2.3,0.9
					c-0.6,0.6-1,1.4-1,2.3c-0.1,1.7,0.9,2.9,3,3.6l2.7,0.9C232.4,175.5,234,177.5,234.3,180.6z"/>
			</g>
			<path class="st0" d="M254.5,180.6c0.2,2.1-0.6,3.9-2.2,5.4c-1.6,1.5-3.5,2.2-5.6,2.1c-2-0.1-3.6-0.9-4.9-2.4
				c-1.3-1.4-2-3.2-2-5.1h3.2v0.8c0,0.8,0.4,1.6,1.3,2.5c0.9,0.9,1.8,1.3,2.8,1.2c1.3,0,2.3-0.4,3.1-1.2c0.7-0.7,1-1.6,1.1-2.8
				c0-2-1.1-3.4-3.4-4.1l-2.7-0.9c-2.9-0.9-4.4-2.8-4.5-5.8c-0.1-1.8,0.5-3.3,1.8-4.6c1.3-1.3,2.9-2,4.7-2c1.6-0.1,3.1,0.4,4.4,1.5
				c1.4,1.1,2.1,2.5,2.2,4.1v0.7h-3.3v-0.5c0-0.8-0.3-1.5-1-2c-0.7-0.5-1.5-0.8-2.4-0.8c-0.9,0-1.6,0.3-2.3,0.9
				c-0.6,0.6-1,1.4-1,2.3c-0.1,1.7,0.9,2.9,3,3.6l2.7,0.9C252.6,175.5,254.3,177.5,254.5,180.6z"/>
		</g>
		<g>
			<circle class="st1" cx="51.8" cy="158.7" r="3.6"/>
		</g>
	</g>
	<g>
		<g>
			<g>
				<g>
					<path class="st2" d="M209.7,77.8h-1.4c0-25.9-21-46.9-46.9-46.9s-46.9,21-46.9,46.9h-1.4c0-26.6,21.7-48.3,48.3-48.3
						S209.7,51.1,209.7,77.8z"/>
				</g>
				<g>
					<path class="st2" d="M210,78.1H208v-0.3c0-25.7-20.9-46.6-46.6-46.6c-25.7,0-46.6,20.9-46.6,46.6v0.3h-2.1v-0.3
						c0-26.8,21.8-48.6,48.6-48.6S210,51,210,77.8V78.1z M208.6,77.4h0.8c-0.2-26.3-21.6-47.7-48-47.7s-47.8,21.3-48,47.7h0.8
						c0.2-25.9,21.3-46.9,47.2-46.9C187.3,30.6,208.4,51.6,208.6,77.4z"/>
					<path class="st2" d="M210.2,78.2h-2.3v-0.5c0-25.6-20.8-46.4-46.4-46.4S115,52.2,115,77.8v0.5h-2.3v-0.5
						c0-26.9,21.9-48.8,48.8-48.8s48.8,21.9,48.8,48.8V78.2z M208.1,78h1.8v-0.2c0-26.7-21.8-48.5-48.5-48.5
						c-26.7,0-48.5,21.8-48.5,48.5V78h1.8v-0.2c0-25.7,20.9-46.7,46.7-46.7c25.7,0,46.7,20.9,46.7,46.7V78z M209.5,77.6h-1l0-0.1
						c-0.2-25.8-21.3-46.7-47.1-46.7c-25.8,0-46.9,21-47.1,46.7l0,0.1h-1l0-0.1c0.2-26.3,21.8-47.8,48.1-47.8
						c26.4,0,47.9,21.4,48.1,47.8L209.5,77.6z M208.7,77.3h0.5c-0.2-26.1-21.7-47.4-47.8-47.4c-26.2,0-47.6,21.2-47.8,47.4h0.5
						c0.3-25.9,21.5-46.9,47.3-46.9C187.3,30.4,208.5,51.4,208.7,77.3z"/>
				</g>
			</g>
		</g>
		<g>
			<g>
				<g>
					<path class="st2" d="M162.4,129.5c-14.4,0-28.8-5.5-39.7-16.4l1-1c21.4,21.4,56.1,21.4,77.5,0l1,1
						C191.2,124,176.8,129.5,162.4,129.5z"/>
				</g>
				<g>
					<path class="st2" d="M162.4,129.8c-15.1,0-29.3-5.9-40-16.5l-0.2-0.2l1.5-1.5l0.2,0.2c21.2,21.2,55.8,21.2,77,0l0.2-0.2
						l1.5,1.5l-0.2,0.2C191.7,123.9,177.5,129.8,162.4,129.8z M123.1,113c10.5,10.4,24.4,16.1,39.3,16.1c14.8,0,28.8-5.7,39.3-16.1
						l-0.5-0.5c-21.4,21.2-56,21.2-77.5,0L123.1,113z"/>
					<path class="st2" d="M162.4,129.9c-15.2,0-29.4-5.9-40.1-16.6L122,113l1.7-1.7l0.3,0.3c21.2,21.2,55.6,21.2,76.8,0l0.3-0.3
						l1.7,1.7l-0.3,0.3C191.8,124.1,177.6,129.9,162.4,129.9z M122.4,113l0.1,0.1c10.6,10.6,24.8,16.5,39.9,16.5
						c15.1,0,29.2-5.9,39.9-16.5l0.1-0.1l-1.3-1.3l-0.1,0.1c-21.3,21.3-55.9,21.3-77.2,0l-0.1-0.1L122.4,113z M162.4,129.3
						c-14.9,0-28.8-5.7-39.4-16.1l-0.1-0.1l0.7-0.7l0.1,0.1c10.3,10.2,24.1,15.8,38.6,15.8c14.6,0,28.3-5.6,38.6-15.8l0.1-0.1
						l0.7,0.7l-0.1,0.1C191.2,123.6,177.3,129.3,162.4,129.3z M123.3,113c10.5,10.3,24.3,16,39.1,16c14.7,0,28.6-5.7,39.1-16
						l-0.3-0.3c-10.4,10.2-24.1,15.8-38.7,15.8c-14.6,0-28.4-5.6-38.7-15.8L123.3,113z"/>
				</g>
			</g>
		</g>
		<g>
			<g>
				<g>
					<path class="st2" d="M159.7,134.3c-13.3,0-26.1-4.7-36.4-13.4c-11.4-9.7-18.4-23.3-19.6-38.3l1.4-0.1
						c1.2,14.6,7.9,27.8,19.1,37.3c11.1,9.5,25.3,14.1,39.9,12.9l0.1,1.4C162.7,134.2,161.2,134.3,159.7,134.3z"/>
					<path class="st2" d="M159.7,134.4c-13.3,0-26.3-4.8-36.5-13.5c-11.5-9.8-18.4-23.4-19.6-38.4l0-0.1l1.7-0.1l0,0.1
						c1.2,14.6,7.9,27.8,19,37.3c11.1,9.5,25.2,14.1,39.8,12.9l0.1,0l0.1,1.7l-0.1,0C162.7,134.4,161.2,134.4,159.7,134.4z
						 M103.9,82.7c1.2,14.9,8.1,28.4,19.5,38.1c10.1,8.6,23,13.4,36.3,13.4c1.5,0,2.9-0.1,4.4-0.2l-0.1-1.1
						c-14.6,1.1-28.7-3.5-39.8-13c-11.1-9.5-17.9-22.7-19.1-37.3L103.9,82.7z"/>
				</g>
				<g>
					<path class="st2" d="M159.7,134.6c-13.4,0-26.4-4.8-36.6-13.5c-11.5-9.8-18.5-23.5-19.7-38.5l0-0.3l2.1-0.2l0,0.3
						c1.2,14.5,7.9,27.7,19,37.1c11.1,9.4,25.1,14,39.6,12.8l0.3,0l0.2,2.1l-0.3,0C162.7,134.6,161.2,134.6,159.7,134.6z
						 M104.1,82.8c1.3,14.7,8.1,28.2,19.4,37.8c11.2,9.5,25.6,14.3,40.4,13.2l-0.1-0.8c-14.6,1.1-28.7-3.5-39.8-13
						c-11.1-9.5-17.9-22.7-19.2-37.2L104.1,82.8z"/>
					<path class="st2" d="M159.7,134.8c-13.4,0-26.4-4.8-36.7-13.6c-11.5-9.8-18.5-23.5-19.7-38.6l0-0.5l2.3-0.2l0,0.5
						c1.2,14.5,7.9,27.6,18.9,37c11,9.4,25.1,14,39.5,12.8l0.5,0l0.2,2.3l-0.5,0C162.7,134.7,161.2,134.8,159.7,134.8z M103.5,82.4
						l0,0.2c1.2,15,8.2,28.7,19.6,38.4c10.2,8.7,23.2,13.5,36.5,13.5c1.5,0,3-0.1,4.6-0.2l0.2,0l-0.1-1.8l-0.2,0
						c-14.5,1.2-28.6-3.4-39.7-12.9c-11.1-9.5-17.8-22.7-19-37.2l0-0.2L103.5,82.4z M159.7,134.1c-13.3,0-26-4.7-36.2-13.4
						c-11.3-9.6-18.2-23.1-19.5-37.9l0-0.1l1-0.1l0,0.1c1.2,14.5,8,27.7,19.1,37.1c11.1,9.4,25.2,14.1,39.7,13l0.1,0l0.1,1l-0.1,0
						C162.5,134.1,161.1,134.1,159.7,134.1z M104.3,83c1.3,14.7,8.2,28,19.4,37.5c11.2,9.6,25.5,14.2,40.1,13.2l0-0.5
						c-14.5,1-28.7-3.6-39.8-13.1c-11.1-9.5-17.9-22.7-19.2-37.2L104.3,83z"/>
				</g>
			</g>
		</g>
		<g>
			<g>
				<g>
					<path class="st2" d="M101.1,94.1c-8.5-31.9,10.5-64.8,42.4-73.3l0.4,1.4c-31.1,8.3-49.7,40.4-41.4,71.6L101.1,94.1z"/>
					<path class="st2" d="M101,94.2l0-0.1c-8.5-32,10.5-64.9,42.5-73.5l0.1,0l0.4,1.6l-0.1,0c-15,4-27.6,13.7-35.4,27.2
						c-7.8,13.5-9.9,29.2-5.9,44.2l0,0.1L101,94.2z M143.3,20.9c-31.7,8.6-50.6,41.2-42.2,73l1.1-0.3c-4-15.1-1.9-30.8,5.9-44.3
						c7.8-13.5,20.4-23.2,35.4-27.3L143.3,20.9z"/>
				</g>
				<g>
					<path class="st2" d="M100.8,94.5l-0.1-0.3c-8.6-32.1,10.5-65.1,42.6-73.7l0.3-0.1l0.5,2l-0.3,0.1c-15,4-27.5,13.6-35.3,27.1
						c-7.8,13.5-9.9,29.1-5.8,44.1l0.1,0.3L100.8,94.5z M143.2,21.2c-31.4,8.6-50.1,41-41.9,72.5l0.7-0.2c-3.9-15-1.8-30.8,6-44.3
						c7.8-13.5,20.4-23.2,35.4-27.3L143.2,21.2z"/>
					<path class="st2" d="M100.7,94.6l-0.1-0.4c-8.6-32.1,10.6-65.3,42.7-73.9l0.4-0.1l0.6,2.3l-0.4,0.1c-14.9,4-27.4,13.6-35.2,27
						c-7.8,13.4-9.8,29-5.8,44L103,94L100.7,94.6z M143.6,20.5l-0.2,0c-32,8.6-51.1,41.5-42.5,73.5l0,0.2l1.7-0.5l0-0.2
						c-4-15-1.9-30.7,5.9-44.2c7.8-13.5,20.4-23.1,35.4-27.1l0.2,0L143.6,20.5z M101.2,93.8l0-0.1c-4-15.3-1.8-31.2,6.1-44.9
						s20.7-23.6,35.9-27.7l0.1,0l0.3,1l-0.1,0c-15,4.1-27.5,13.8-35.3,27.2c-7.8,13.5-9.9,29.2-6,44.2l0,0.1L101.2,93.8z
						 M143.1,21.3c-15.1,4.2-27.7,13.9-35.6,27.5c-7.9,13.6-10,29.4-6.1,44.6l0.5-0.1c-3.9-15-1.8-30.7,6-44.2
						c7.8-13.5,20.3-23.2,35.3-27.3L143.1,21.3z"/>
				</g>
			</g>
		</g>
		<g>
			<g>
				<g>
					<rect x="159.7" y="30.2" class="st2" width="1.4" height="7.8"/>
					<path class="st2" d="M161.3,38.1h-1.7V30h1.7V38.1z M159.8,37.8h1.1v-7.5h-1.1V37.8z"/>
				</g>
				<g>
					<path class="st2" d="M161.4,38.3h-2.1v-8.5h2.1V38.3z M160,37.7h0.8v-7.2H160V37.7z"/>
					<path class="st2" d="M161.6,38.4h-2.3v-8.7h2.3V38.4z M159.5,38.2h1.8V30h-1.8V38.2z M160.9,37.8h-1v-7.4h1V37.8z M160.2,37.5
						h0.5v-6.9h-0.5V37.5z"/>
				</g>
			</g>
		</g>
		<g>
			<g>
				<g>
					<rect x="159.7" y="121.1" class="st2" width="1.4" height="7.8"/>
					<path class="st2" d="M161.3,129.1h-1.7V121h1.7V129.1z M159.8,128.8h1.1v-7.5h-1.1V128.8z"/>
				</g>
				<g>
					<path class="st2" d="M161.4,129.2h-2.1v-8.5h2.1V129.2z M160,128.6h0.8v-7.2H160V128.6z"/>
					<path class="st2" d="M161.6,129.4h-2.3v-8.7h2.3V129.4z M159.5,129.1h1.8v-8.2h-1.8V129.1z M160.9,128.7h-1v-7.4h1V128.7z
						 M160.2,128.5h0.5v-6.9h-0.5V128.5z"/>
				</g>
			</g>
		</g>
		<g>
			<g>
				<g>
					<path class="st2" d="M129.9,111.3l25.6-55.2l26.8,24.3L129.9,111.3z M155.9,58l-23.4,50.4l47.9-28.2L155.9,58z"/>
					<path class="st2" d="M129.6,111.7l0.2-0.4l25.7-55.4l0.1,0.1l27,24.4l-0.2,0.1L129.6,111.7z M155.5,56.3L130.2,111l51.9-30.6
						L155.5,56.3z M132.2,108.8l0.2-0.4l23.4-50.6l0.1,0.1l24.7,22.3l-0.2,0.1L132.2,108.8z M155.9,58.2l-23.1,49.9l47.4-27.9
						L155.9,58.2z"/>
				</g>
			</g>
			<g>
				<g>
					<path class="st2" d="M182.4,73.2l-19.8-17.9l24.2-5.6L182.4,73.2z M165,55.9L181.6,71"/>
				</g>
			</g>
		</g>
		<g>
			<g>
				<g>
					<path class="st2" d="M129.6,111l28.3-53.9l25.6,25.6L129.6,111z M158.1,59.1l-25.8,49.2l49.2-25.8L158.1,59.1z"/>
				</g>
			</g>
			<g>
				<g>
					<path class="st2" d="M183.8,75.6L165,56.7l24.4-4.4L183.8,75.6z M167.3,57.5l15.9,15.9l4.7-19.6L167.3,57.5z"/>
				</g>
			</g>
		</g>
	</g>
</g>
</svg>
