<?xml version="1.0" encoding="UTF-8" standalone="no"?>
<svg
   xmlns:dc="http://purl.org/dc/elements/1.1/"
   xmlns:cc="http://creativecommons.org/ns#"
   xmlns:rdf="http://www.w3.org/1999/02/22-rdf-syntax-ns#"
   xmlns:svg="http://www.w3.org/2000/svg"
   xmlns="http://www.w3.org/2000/svg"
   xmlns:xlink="http://www.w3.org/1999/xlink"
   xmlns:sodipodi="http://sodipodi.sourceforge.net/DTD/sodipodi-0.dtd"
   xmlns:inkscape="http://www.inkscape.org/namespaces/inkscape"
   inkscape:version="1.0 (4035a4fb49, 2020-05-01)"
   sodipodi:docname="write.svg"
   id="svg32"
   version="1.1"
   viewBox="0 0 928 219"
   height="219"
   width="928">
  <metadata
     id="metadata36">
    <rdf:RDF>
      <cc:Work
         rdf:about="">
        <dc:format>image/svg+xml</dc:format>
        <dc:type
           rdf:resource="http://purl.org/dc/dcmitype/StillImage" />
      </cc:Work>
    </rdf:RDF>
  </metadata>
  <sodipodi:namedview
     inkscape:current-layer="svg32"
     inkscape:window-maximized="1"
     inkscape:window-y="-8"
     inkscape:window-x="-8"
     inkscape:cy="169.08266"
     inkscape:cx="464"
     inkscape:zoom="1.3426724"
     showgrid="false"
     id="namedview34"
     inkscape:window-height="1017"
     inkscape:window-width="1920"
     inkscape:pageshadow="2"
     inkscape:pageopacity="0"
     guidetolerance="10"
     gridtolerance="10"
     objecttolerance="10"
     borderopacity="1"
     bordercolor="#666666"
     pagecolor="#ffffff" />
  <defs
     id="defs22">
    <linearGradient
       id="linearGradient909"
       inkscape:collect="always">
      <stop
         id="stop905"
         offset="0"
         style="stop-color:#bc5fd3;stop-opacity:1;" />
      <stop
         id="stop907"
         offset="1"
         style="stop-color:#bc5fd3;stop-opacity:0;" />
    </linearGradient>
    <linearGradient
       id="linearGradient901"
       inkscape:collect="always">
      <stop
         id="stop897"
         offset="0"
         style="stop-color:#892ca0;stop-opacity:1;" />
      <stop
         id="stop899"
         offset="1"
         style="stop-color:#892ca0;stop-opacity:0;" />
    </linearGradient>
    <linearGradient
       id="linearGradient885"
       inkscape:collect="always">
      <stop
         id="stop881"
         offset="0"
         style="stop-color:#cd87de;stop-opacity:1;" />
      <stop
         id="stop883"
         offset="1"
         style="stop-color:#cd87de;stop-opacity:0;" />
    </linearGradient>
    <linearGradient
       id="linearGradient877"
       inkscape:collect="always">
      <stop
         id="stop873"
         offset="0"
         style="stop-color:#ddafe9;stop-opacity:1;" />
      <stop
         id="stop875"
         offset="1"
         style="stop-color:#ddafe9;stop-opacity:0;" />
    </linearGradient>
    <linearGradient
       y2="22.995%"
       y1="46.673%"
       x2="42.657%"
       x1="42.657%"
       id="a1">
      <stop
         id="stop2"
         stop-color="#629FF4"
         offset="0%" />
      <stop
         id="stop4"
         stop-color="#59CBB7"
         offset="100%" />
    </linearGradient>
    <linearGradient
       y2="50%"
       y1="50%"
       x2="0%"
       x1="100%"
       id="a2">
      <stop
         id="stop7"
         stop-color="#629FF4"
         offset="0%" />
      <stop
         id="stop9"
         stop-color="#59CBB7"
         offset="100%" />
    </linearGradient>
    <linearGradient
       spreadMethod="pad"
       gradientUnits="objectBoundingBox"
       y2="0.070019998"
       y1="0.5571"
       x2="0.62926996"
       x1="0.50784999"
       id="a3">
      <stop
         id="stop12"
         stop-color="#629FF4"
         offset="0%" />
      <stop
         id="stop14"
         stop-color="#59CBB7"
         offset="100%" />
    </linearGradient>
    <linearGradient
       y2="5.285%"
       y1="119.929%"
       x2="59.046%"
       x1="59.046%"
       id="a4">
      <stop
         id="stop17"
         stop-color="#629FF4"
         offset="0%" />
      <stop
         id="stop19"
         stop-color="#59CBB7"
         offset="100%" />
    </linearGradient>
    <linearGradient
       gradientUnits="userSpaceOnUse"
       y2="290.50014"
       x2="2393.7"
       y1="290.50014"
       x1="1.0100892"
       id="linearGradient879"
       xlink:href="#linearGradient877"
       inkscape:collect="always" />
    <linearGradient
       gradientUnits="userSpaceOnUse"
       y2="289.50001"
       x2="1889.71"
       y1="289.50001"
       x1="-995.86"
       id="linearGradient887"
       xlink:href="#linearGradient885"
       inkscape:collect="always" />
    <linearGradient
       gradientUnits="userSpaceOnUse"
       y2="279.51175"
       x2="1466.52"
       y1="279.51175"
       x1="-1219.0705"
       id="linearGradient903"
       xlink:href="#linearGradient901"
       inkscape:collect="always" />
    <linearGradient
       gradientUnits="userSpaceOnUse"
       y2="290.50014"
       x2="1846.28"
       y1="290.50014"
       x1="-546.40991"
       id="linearGradient911"
       xlink:href="#linearGradient909"
       inkscape:collect="always" />
  </defs>
  <path
     style="fill:url(#linearGradient911);fill-opacity:1"
     id="path24"
     transform="translate(0 -59)"
     opacity=".1"
     d="M-176.76 59.256C9.35 57.427 139.86 192.7 219.165 218.888c79.306 26.188 128.875-1.008 178.44-28.201 49.567-27.193 110.7-42.301 204.877 30.215 94.177 72.517 188.141-97.007 188.141-97.007s34.733-66.78 127.361-64.64c93.893 2.17 104.205 80.244 129.015 111.447 24.81 31.204 47.48 109.167 369.892 109.167h429.389v19.733s-433.65 7.975-600.493 14.434c-128.21 4.969-173.152 51.143-189.69 82.358-16.54 31.214-54.584 122.592-133.978 121.478-79.394-1.114-110.82-30.091-168.71-104.766-57.89-74.674-155.057-47.673-196.363-35.587-41.307 12.085-135.484 37.265-204.877-34.245-69.392-71.51-138.788-51.366-180.092-24.171C130.773 346.297-18.295 522-176.76 522c-388.588-3.117-368.78-192.363-368.78-242.13 0-49.768-36.829-228.544 368.78-220.614z"
     fill-rule="evenodd"
     fill="url(#a1)" />
  <path
     style="fill:url(#linearGradient879);fill-opacity:1"
     id="path26"
     transform="translate(-1 -59)"
     opacity=".1"
     d="M370.66 59.256C556.77 57.427 687.28 192.7 766.585 218.888c79.306 26.188 128.875-1.008 178.44-28.201 49.567-27.193 110.7-42.301 204.877 30.215 94.177 72.517 188.141-97.007 188.141-97.007s34.733-66.78 127.361-64.64c93.893 2.17 104.205 80.244 129.015 111.447 24.81 31.204 47.48 109.167 369.892 109.167H2393.7v19.733s-433.65 7.975-600.493 14.434c-128.21 4.969-173.152 51.143-189.69 82.358-16.54 31.214-54.584 122.592-133.978 121.478-79.394-1.114-110.82-30.091-168.71-104.766-57.89-74.674-155.057-47.673-196.363-35.587-41.307 12.085-135.484 37.265-204.877-34.245-69.392-71.51-138.788-51.366-180.092-24.171C678.193 346.297 529.125 522 370.66 522-17.928 518.883 1.88 329.637 1.88 279.87c0-49.768-36.829-228.544 368.78-220.614z"
     fill-rule="evenodd"
     fill="url(#a2)" />
  <path
     style="fill-opacity:1;fill:url(#linearGradient903)"
     id="path28"
     transform="translate(0 -57)"
     opacity=".8"
     d="M-1219.07 253.174c-.703 33.773 738.484 17.81 851.429 7.097 112.944-10.714 126.927-33.798 141.985-47.81 15.058-14.012 69.918-85.722 136.608-86.55 66.691-.829 102.189 82.428 153.82 103.86 51.63 21.433 83.9-16.413 116.17-38.669 32.27-22.255 72.068-34.621 133.382 24.729 61.314 59.35 121.548-60.997 121.548-60.997s21.198-47.81 73.736-47.81c52.54 0 76.856 59.35 92.991 82.429 16.135 23.08 10.308 78.572 391.728 78.572h472.193v18.18s-639.521 7.883-755.819 9.995c-83.54 1.516-91.428 42.864-102.196 65.944-10.768 23.079-35.495 90.674-87.128 89.848-51.633-.825-72.058-22.255-109.708-77.48-37.65-55.226-100.036-40.39-126.927-30.5-26.891 9.89-88.203 30.5-133.38-28.03-45.176-58.528-90.354-26.45-117.248-4.195-26.893 22.256-43.02 64.548-100.036 75.262-57.017 10.713-90.355-29.674-123.7-51.106-33.346-21.432-101.111-50.283-305.485-46.984-204.375 3.298-723.424-3.55-723.424-3.55l-.539-32.235z"
     fill-rule="evenodd"
     fill="url(#a3)" />
  <path
     style="fill-opacity:1;fill:url(#linearGradient887)"
     transform="translate(0 -79)"
     id="path30"
     opacity=".4"
     d="M-995.529 264.81s662.692-4.651 793.823-9.656c131.589-5.004 171.154-27.35 191.898-39.316 34.76-20.039 73.183-70.436 134.07-67.63 90.624 4.174 79.487 67.53 140.278 87.669 83.175 27.553 198.626-85.906 271.866-14.936 44.711 43.322 111.584-13.736 127.547-37.375C679.915 159.926 708.316 79 789.648 79c81.333 0 115.385 82.267 130.967 103.115 15.582 20.847 25.51 66.83 287.988 70.696 184.277 2.716 284.469 5.655 282.333 5.268h398.774v28.675c-5.8 0-317.198 5.509-379.876 5.625-266.186 4.353-431.142 10.704-494.868 19.054-95.589 12.524-103.656 69.72-116.07 93.098-12.413 23.378-50.897 96.292-110.486 95.462-59.588-.83-86.697-46.698-130.238-102.608-27.31-35.068-62.177-41.276-93.212-31.256-31.035 10.019-111.513 34.633-173.797-20.04-73.242-64.29-119.637-17.726-155.175 1.577-32.275 17.534-42.207 36.738-100.553 44.25-40.217 5.178-68.095-13.736-121.656-49.254C-33.726 285.306-995.86 299.64-995.86 299.64l.331-34.83z"
     fill-rule="evenodd"
     fill="url(#a4)" />
</svg>
