<?xml version="1.0" encoding="UTF-8" standalone="no"?>
<svg
   xmlns:dc="http://purl.org/dc/elements/1.1/"
   xmlns:cc="http://creativecommons.org/ns#"
   xmlns:rdf="http://www.w3.org/1999/02/22-rdf-syntax-ns#"
   xmlns:svg="http://www.w3.org/2000/svg"
   xmlns="http://www.w3.org/2000/svg"
   xmlns:sodipodi="http://sodipodi.sourceforge.net/DTD/sodipodi-0.dtd"
   xmlns:inkscape="http://www.inkscape.org/namespaces/inkscape"
   version="1.1"
   id="Calque_1"
   x="0px"
   y="0px"
   viewBox="0 0 385.5 106"
   style="enable-background:new 0 0 385.5 106;"
   xml:space="preserve"
   sodipodi:docname="cv-logo-bw.svg"
   inkscape:version="1.0 (4035a4fb49, 2020-05-01)"><metadata
   id="metadata135"><rdf:RDF><cc:Work
       rdf:about=""><dc:format>image/svg+xml</dc:format><dc:type
         rdf:resource="http://purl.org/dc/dcmitype/StillImage" /><dc:title></dc:title></cc:Work></rdf:RDF></metadata><defs
   id="defs133" /><sodipodi:namedview
   inkscape:document-rotation="0"
   pagecolor="#ffffff"
   bordercolor="#666666"
   borderopacity="1"
   objecttolerance="10"
   gridtolerance="10"
   guidetolerance="10"
   inkscape:pageopacity="0"
   inkscape:pageshadow="2"
   inkscape:window-width="1920"
   inkscape:window-height="1017"
   id="namedview131"
   showgrid="false"
   inkscape:zoom="3.1854734"
   inkscape:cx="196.68216"
   inkscape:cy="-11.463121"
   inkscape:window-x="-8"
   inkscape:window-y="-8"
   inkscape:window-maximized="1"
   inkscape:current-layer="Calque_1" />
<style
   type="text/css"
   id="style2">
	.st0{fill:#120A37;}
	.st1{fill:#C63F3C;}
</style>


















<g
   id="g1023"
   transform="matrix(1.1859838,0,0,1.1859838,-36.273492,-9.8262981)"><path
     id="path4"
     d="M 124.5,40.1 H 121 v -6.2 h 3.5 z m 0,29.7 H 121 V 43.3 h 3.5 z"
     class="st0" /><path
     id="path6"
     d="m 165.8,60.6 c -1.6,3.1 -3.9,5.5 -6.7,7.2 -2.8,1.7 -6,2.6 -9.6,2.7 -5.1,0.1 -9.4,-1.8 -13,-5.4 -3.6,-3.7 -5.4,-8.1 -5.4,-13.2 0,-5.3 1.8,-9.7 5.4,-13.2 3.5,-3.5 7.9,-5.2 13,-5.2 3.6,0 6.8,0.9 9.7,2.7 2.8,1.8 5,4.1 6.5,7.1 h -4 c -3,-4.3 -7.1,-6.5 -12.5,-6.4 -4,0 -7.4,1.4 -10.3,4.3 -2.9,2.9 -4.3,6.3 -4.4,10.4 -0.1,4.2 1.3,7.8 4.3,10.9 3,3.1 6.5,4.6 10.7,4.6 2.4,0 4.8,-0.6 7.1,-1.9 2.2,-1.2 3.9,-2.7 5.2,-4.6 z"
     class="st0" /><path
     id="path8"
     d="m 194.9,56.5 c 0,3.8 -1.4,7.1 -4.2,9.9 -2.8,2.8 -6.1,4.1 -9.9,4 -3.7,-0.1 -6.8,-1.5 -9.4,-4.2 -2.6,-2.7 -3.8,-5.9 -3.8,-9.6 0,-3.9 1.4,-7.2 4.1,-10 2.8,-2.8 6,-4.1 9.9,-4 3.7,0.1 6.8,1.5 9.4,4.3 2.6,2.7 3.9,5.9 3.9,9.6 z m -3.5,-0.2 c -0.1,-2.8 -1.1,-5.2 -3,-7.2 -1.9,-2 -4.2,-3 -6.9,-3 -2.8,0 -5.2,1 -7.2,3 -2,2 -3,4.4 -3,7.3 -0.1,2.8 0.9,5.3 2.8,7.4 1.9,2.1 4.2,3.2 6.9,3.3 2.9,0.2 5.4,-0.9 7.5,-3 2,-2.4 3,-4.9 2.9,-7.8 z"
     class="st0" /><path
     id="path10"
     d="m 239.5,69.8 h -3.7 V 53.5 c 0,-2 -0.6,-3.8 -1.8,-5.3 -1.2,-1.5 -2.7,-2.2 -4.7,-2.2 -2,0 -3.6,0.6 -5,1.9 -1.4,1.3 -2.1,2.9 -2.1,4.7 v 17.1 h -3.7 v -17 c 0,-1.9 -0.7,-3.5 -2.1,-4.7 -1.4,-1.3 -3.1,-1.9 -5,-1.9 -1.9,0 -3.5,0.7 -4.6,2.2 -1.1,1.4 -1.7,3.2 -1.7,5.3 v 16.3 h -3.7 v -16 c 0,-3.3 0.9,-6 2.8,-8 1.8,-1.9 4.1,-3 7,-3.2 3.8,-0.3 6.9,1.3 9.2,4.9 2.3,-3.6 5.4,-5.2 9.2,-4.9 2.9,0.2 5.2,1.3 7,3.2 1.9,2 2.9,4.7 2.9,8 z"
     class="st0" /><path
     id="path12"
     d="m 273.5,56.5 c 0,3.9 -1.4,7.2 -4.1,10 -2.8,2.8 -6,4.1 -9.9,4 -3.9,-0.2 -7.2,-1.7 -9.8,-4.7 v 13.4 h -3.4 V 56.7 c 0,-0.1 0,-0.2 0,-0.2 0,-3.8 1.4,-7.1 4.2,-9.9 2.8,-2.8 6.1,-4.1 9.9,-4 3.7,0.1 6.8,1.5 9.4,4.2 2.6,2.7 3.7,6 3.7,9.7 z m -3.6,0.3 c 0,-2.8 -0.9,-5.3 -2.8,-7.4 -1.9,-2.1 -4.2,-3.2 -7,-3.3 -2.9,-0.2 -5.4,0.9 -7.5,3 -2.1,2.2 -3.1,4.7 -3,7.7 0.1,2.8 1.1,5.2 3,7.2 1.9,2 4.3,3 7,3 2.8,0 5.2,-1 7.2,-3 2,-2 3.1,-4.4 3.1,-7.2 z"
     class="st0" /><path
     id="path14"
     d="m 306.9,56.5 v 0.2 13.1 h -3.5 v -4.1 c -2.9,3.3 -6.4,4.9 -10.6,4.7 -3.6,-0.1 -6.7,-1.5 -9.3,-4.2 -2.6,-2.7 -3.8,-5.9 -3.8,-9.6 0,-3.9 1.4,-7.2 4.1,-10 2.8,-2.8 6.1,-4.1 9.9,-3.9 3.7,0.1 6.9,1.5 9.5,4.3 2.6,2.6 3.9,5.8 3.7,9.5 z m -3.5,-0.3 c -0.1,-2.8 -1.1,-5.2 -3,-7.2 -1.9,-2 -4.2,-3 -6.9,-3 -2.8,0 -5.2,1 -7.2,3 -2,2 -3,4.4 -3,7.2 -0.1,2.8 0.9,5.2 2.8,7.3 1.9,2.1 4.2,3.2 6.9,3.3 2.9,0.1 5.4,-0.9 7.5,-3.1 2,-1.9 3,-4.5 2.9,-7.5 z"
     class="st0" /><path
     id="path16"
     d="m 330.3,61.9 c 0.2,2.4 -0.7,4.5 -2.5,6.2 -1.9,1.8 -4,2.6 -6.4,2.4 -2.2,-0.2 -4.1,-1.1 -5.6,-2.7 -1.5,-1.6 -2.3,-3.6 -2.3,-5.9 h 3.7 v 0.9 c 0,0.9 0.5,1.8 1.5,2.8 1,1 2,1.4 3.2,1.4 1.5,0 2.7,-0.5 3.5,-1.4 0.8,-0.8 1.2,-1.9 1.2,-3.2 0,-2.3 -1.3,-3.8 -3.9,-4.7 l -3.1,-1 c -3.3,-1 -5,-3.2 -5.1,-6.7 -0.1,-2 0.6,-3.8 2.1,-5.3 1.5,-1.5 3.3,-2.2 5.3,-2.3 1.8,-0.1 3.5,0.5 5.1,1.7 1.6,1.2 2.4,2.8 2.5,4.7 v 0.8 h -3.7 V 49 c 0,-0.9 -0.4,-1.7 -1.2,-2.3 -0.8,-0.6 -1.7,-0.9 -2.7,-0.9 -1,0 -1.9,0.4 -2.6,1.1 -0.7,0.7 -1.1,1.5 -1.1,2.6 -0.1,1.9 1,3.3 3.4,4.1 l 3.1,1 c 3.5,1.4 5.4,3.8 5.6,7.3 z"
     class="st0" /><path
     id="path18"
     d="m 353.4,61.9 c 0.2,2.4 -0.7,4.5 -2.5,6.2 -1.9,1.8 -4,2.6 -6.4,2.4 -2.2,-0.2 -4.1,-1.1 -5.6,-2.7 -1.5,-1.6 -2.3,-3.6 -2.3,-5.9 h 3.7 v 0.9 c 0,0.9 0.5,1.8 1.5,2.8 1,1 2,1.4 3.2,1.4 1.5,0 2.7,-0.5 3.5,-1.4 0.8,-0.8 1.2,-1.9 1.2,-3.2 0,-2.3 -1.3,-3.8 -3.9,-4.7 l -3.1,-1 c -3.3,-1 -5,-3.2 -5.1,-6.7 -0.1,-2 0.6,-3.8 2.1,-5.3 1.5,-1.5 3.3,-2.2 5.3,-2.3 1.8,-0.1 3.5,0.5 5.1,1.7 1.6,1.2 2.4,2.8 2.5,4.7 v 0.8 h -3.7 V 49 c 0,-0.9 -0.4,-1.7 -1.2,-2.3 -0.8,-0.6 -1.7,-0.9 -2.7,-0.9 -1,0 -1.9,0.4 -2.6,1.1 -0.7,0.7 -1.1,1.5 -1.1,2.6 -0.1,1.9 1,3.3 3.4,4.1 l 3.1,1 c 3.4,1.4 5.3,3.8 5.6,7.3 z"
     class="st0" /><g
     id="g22">
	<circle
   id="circle20"
   r="4.0999999"
   cy="37"
   cx="122.3"
   class="st1" />
</g><g
     id="g34">
	<g
   id="g26">
		<path
   id="path24"
   d="m 105,53 h -0.9 C 104.1,36.3 90.5,22.6 73.7,22.6 56.9,22.6 43.4,36.3 43.4,53 h -0.9 c 0,-17.3 14,-31.3 31.3,-31.3 17.3,0 31.2,14.1 31.2,31.3 z"
   class="st0" />
	</g>
	<g
   id="g32">
		<path
   id="path28"
   d="m 105.2,53.2 h -1.3 V 53 C 103.9,36.4 90.4,22.8 73.7,22.8 57.1,22.8 43.5,36.3 43.5,53 v 0.2 H 42.2 V 53 c 0,-17.4 14.1,-31.5 31.5,-31.5 17.4,0 31.5,14.1 31.5,31.5 z m -0.9,-0.4 h 0.5 c -0.1,-17 -14,-30.9 -31.1,-30.9 -17.1,0 -31,13.8 -31.1,30.9 h 0.5 C 43.2,36 56.9,22.4 73.7,22.4 c 16.8,0.1 30.5,13.7 30.6,30.4 z"
   class="st0" />
		<path
   id="path30"
   d="m 105.3,53.3 h -1.5 V 53 c 0,-16.6 -13.5,-30.1 -30.1,-30.1 -16.6,0 -30,13.6 -30,30.1 v 0.3 H 42.2 V 53 c 0,-17.4 14.2,-31.6 31.6,-31.6 17.4,0 31.6,14.2 31.6,31.6 v 0.3 z M 104,53.2 h 1.2 V 53 C 105.2,35.7 91.1,21.6 73.8,21.6 56.5,21.6 42.4,35.7 42.4,53 v 0.1 h 1.2 V 53 C 43.6,36.3 57.2,22.8 73.8,22.8 90.4,22.8 104,36.4 104,53 Z m 0.9,-0.3 h -0.7 V 52.8 C 104.1,36.1 90.4,22.5 73.7,22.5 57,22.5 43.3,36.1 43.2,52.8 v 0.1 h -0.7 v -0.1 c 0.1,-17.1 14.1,-31 31.2,-31 17.1,0.1 31.1,14 31.2,31.1 z m -0.5,-0.2 h 0.3 C 104.5,35.8 90.7,22 73.7,22 56.8,22 42.9,35.8 42.7,52.7 H 43 C 43.2,36 57,22.4 73.7,22.4 c 16.8,0 30.5,13.6 30.7,30.3 z"
   class="st0" />
	</g>
</g><g
     id="g46">
	<g
   id="g38">
		<path
   id="path36"
   d="M 74.4,86.5 C 65.1,86.5 55.8,83 48.7,75.9 l 0.7,-0.7 C 63.2,89 85.7,89 99.6,75.2 l 0.7,0.7 C 93,83 83.7,86.5 74.4,86.5 Z"
   class="st0" />
	</g>
	<g
   id="g44">
		<path
   id="path40"
   d="m 74.4,86.7 c -9.8,0 -19,-3.8 -25.9,-10.7 l -0.1,-0.1 0.9,-1 0.1,0.1 c 13.8,13.8 36.1,13.8 49.9,0 l 0.1,-0.1 0.9,1 -0.1,0.1 c -6.8,6.9 -16,10.7 -25.8,10.7 z M 48.9,75.9 c 6.8,6.7 15.8,10.4 25.4,10.4 9.6,0 18.6,-3.7 25.4,-10.4 L 99.3,75.5 C 85.4,89.2 63,89.2 49.1,75.5 Z"
   class="st0" />
		<path
   id="path42"
   d="m 74.4,86.8 c -9.8,0 -19,-3.8 -26,-10.7 l -0.2,-0.2 1.1,-1.1 0.2,0.2 c 13.7,13.7 36,13.7 49.8,0 l 0.2,-0.2 1.1,1.1 -0.2,0.2 c -7,6.9 -16.2,10.7 -26,10.7 z M 48.5,75.9 v 0 c 7,7 16.1,10.8 25.9,10.8 9.8,0 18.9,-3.8 25.8,-10.7 l 0.1,-0.1 -0.8,-0.8 -0.1,0.1 C 85.6,89 63.2,89 49.4,75.2 l -0.1,-0.1 z m 25.9,10.5 c -9.6,0 -18.7,-3.7 -25.5,-10.5 l -0.1,-0.1 0.5,-0.5 0.1,0.1 c 6.7,6.6 15.6,10.3 25,10.3 9.4,0 18.3,-3.6 25,-10.3 l 0.1,-0.1 0.5,0.5 -0.1,0.1 C 93.1,82.7 84,86.4 74.4,86.4 Z M 49.1,75.9 c 6.8,6.7 15.8,10.3 25.3,10.3 9.5,0 18.5,-3.7 25.3,-10.3 L 99.5,75.7 C 92.8,82.3 83.9,86 74.4,86 64.9,86 56,82.3 49.3,75.7 Z"
   class="st0" />
	</g>
</g><g
     id="g60">
	<g
   id="g52">
		<path
   id="path48"
   d="M 72.6,89.6 C 64,89.6 55.7,86.6 49,80.9 41.6,74.6 37.1,65.8 36.3,56.1 L 37.2,56 c 0.8,9.4 5.1,18 12.3,24.2 7.2,6.1 16.4,9.1 25.8,8.4 l 0.1,0.9 c -0.8,0.1 -1.8,0.1 -2.8,0.1 z"
   class="st0" />
		<path
   id="path50"
   d="M 72.6,89.7 C 64,89.7 55.6,86.6 49,81 41.6,74.7 37.1,65.8 36.3,56.1 V 56 l 1.1,-0.1 V 56 c 0.7,9.4 5.1,18 12.3,24.1 7.2,6.1 16.3,9.1 25.8,8.3 h 0.1 l 0.1,1.1 h -0.1 c -1,0.2 -2,0.2 -3,0.2 z M 36.5,56.2 c 0.8,9.6 5.3,18.4 12.6,24.7 6.6,5.6 14.9,8.7 23.5,8.7 0.9,0 1.9,0 2.8,-0.1 L 75.3,88.8 C 65.9,89.5 56.7,86.5 49.5,80.4 42.4,74.2 38,65.6 37.2,56.2 Z"
   class="st0" />
	</g>
	<g
   id="g58">
		<path
   id="path54"
   d="m 72.6,89.9 c -8.7,0 -17.1,-3.1 -23.7,-8.8 -7.4,-6.3 -12,-15.2 -12.7,-25 v -0.2 l 1.3,-0.1 V 56 c 0.7,9.4 5.1,17.9 12.3,24 7.2,6.1 16.3,9.1 25.7,8.3 h 0.2 l 0.1,1.3 h -0.2 c -1,0.2 -2,0.3 -3,0.3 z m -36,-33.6 c 0.8,9.6 5.3,18.2 12.6,24.5 7.2,6.2 16.6,9.3 26.1,8.6 V 88.9 C 65.9,89.6 56.7,86.6 49.5,80.5 42.3,74.4 37.9,65.8 37.1,56.4 Z"
   class="st0" />
		<path
   id="path56"
   d="M 72.6,89.9 C 63.9,89.9 55.5,86.8 48.8,81.1 41.3,74.7 36.8,65.9 36,56.1 v -0.3 l 1.5,-0.1 V 56 c 0.7,9.4 5.1,17.9 12.2,24 7.2,6.1 16.3,9 25.6,8.3 h 0.3 l 0.1,1.5 h -0.3 c -0.8,0.1 -1.8,0.1 -2.8,0.1 z M 36.3,56 v 0.1 C 37,65.9 41.5,74.7 49,81 c 6.6,5.6 15,8.7 23.6,8.7 1,0 2,0 3,-0.1 h 0.1 L 75.6,88.4 H 75.5 C 66.1,89.2 56.9,86.2 49.8,80.1 42.5,74 38.2,65.5 37.4,56 V 55.9 Z M 72.6,89.5 C 64,89.5 55.7,86.5 49.1,80.8 41.8,74.6 37.3,65.9 36.5,56.3 v -0.1 l 0.7,-0.1 v 0.1 c 0.8,9.4 5.2,17.9 12.4,24.1 7.2,6.1 16.3,9.1 25.7,8.4 h 0.1 l 0.1,0.7 h -0.1 c -1,0.1 -1.9,0.1 -2.8,0.1 z M 36.7,56.4 c 0.8,9.5 5.3,18.1 12.5,24.3 7.3,6.2 16.5,9.2 26,8.5 V 88.9 C 65.8,89.6 56.6,86.6 49.4,80.4 42.3,74.3 37.9,65.8 37,56.4 Z"
   class="st0" />
	</g>
</g><g
     id="g74">
	<g
   id="g66">
		<path
   id="path62"
   d="M 34.7,63.6 C 29.2,42.9 41.5,21.7 62.1,16.1 L 62.3,17 C 42.1,22.4 30.1,43.2 35.5,63.3 Z"
   class="st0" />
		<path
   id="path64"
   d="m 34.6,63.7 v 0 C 29,42.9 41.4,21.6 62.1,16 h 0.1 l 0.3,1.1 h -0.1 c -9.7,2.6 -17.9,8.8 -22.9,17.6 -5.1,8.7 -6.4,18.9 -3.8,28.6 v 0.1 z M 62,16.2 C 41.5,21.7 29.2,42.9 34.7,63.5 l 0.7,-0.2 c -2.6,-9.7 -1.2,-19.9 3.8,-28.7 5.1,-8.8 13.2,-15 22.9,-17.7 z"
   class="st0" />
	</g>
	<g
   id="g72">
		<path
   id="path68"
   d="M 34.5,63.9 34.4,63.7 C 28.9,42.9 41.3,21.5 62,15.9 l 0.2,-0.1 0.3,1.3 -0.2,0.1 c -9.7,2.6 -17.8,8.8 -22.8,17.5 -5,8.7 -6.4,18.9 -3.8,28.6 l 0.1,0.2 z M 61.9,16.4 C 41.6,22 29.4,42.9 34.8,63.4 l 0.5,-0.1 c -2.5,-9.7 -1.2,-19.9 3.9,-28.7 5.1,-8.8 13.2,-15 22.9,-17.7 z"
   class="st0" />
		<path
   id="path70"
   d="M 34.4,64 34.3,63.7 C 28.8,42.9 41.2,21.4 62,15.8 l 0.3,-0.1 0.4,1.5 -0.3,0.1 c -9.7,2.6 -17.8,8.8 -22.8,17.5 -5,8.7 -6.4,18.8 -3.8,28.5 l 0.1,0.3 z M 62.2,16 H 62.1 C 41.3,21.5 29,42.9 34.5,63.6 v 0.1 l 1.1,-0.3 V 63.3 C 33,53.6 34.3,43.4 39.4,34.7 44.4,26 52.6,19.7 62.3,17.1 h 0.1 z M 34.7,63.4 v 0 C 32.1,53.4 33.5,43.1 38.6,34.2 43.7,25.3 52.1,19 61.9,16.3 H 62 l 0.2,0.7 h -0.1 c -9.7,2.6 -17.8,8.9 -22.8,17.6 -5,8.7 -6.4,18.9 -3.9,28.6 v 0.1 z M 61.9,16.5 c -9.8,2.7 -18,9 -23.1,17.8 -5.1,8.8 -6.5,19.1 -3.9,28.9 l 0.3,-0.1 C 32.7,53.4 34.1,43.2 39.1,34.5 44.2,25.8 52.3,19.5 62,16.8 Z"
   class="st0" />
	</g>
</g><g
     id="g88">
	<g
   id="g80">
		<rect
   id="rect76"
   height="5.0999999"
   width="0.89999998"
   class="st0"
   y="22.200001"
   x="72.599998" />
		<path
   id="path78"
   d="m 73.6,27.4 h -1.1 v -5.2 h 1.1 z m -0.9,-0.2 h 0.7 v -4.9 h -0.7 z"
   class="st0" />
	</g>
	<g
   id="g86">
		<path
   id="path82"
   d="M 73.7,27.5 H 72.4 V 22 h 1.3 z m -0.9,-0.4 h 0.5 v -4.6 h -0.5 z"
   class="st0" />
		<path
   id="path84"
   d="m 73.8,27.6 h -1.5 v -5.7 h 1.5 z m -1.3,-0.2 h 1.2 v -5.3 h -1.2 z m 0.9,-0.3 h -0.7 v -4.8 h 0.7 z M 72.9,27 h 0.3 v -4.5 h -0.3 z"
   class="st0" />
	</g>
</g><g
     id="g102">
	<g
   id="g94">
		<rect
   id="rect90"
   height="5.0999999"
   width="0.89999998"
   class="st0"
   y="81.099998"
   x="72.599998" />
		<path
   id="path92"
   d="M 73.6,86.3 H 72.5 V 81 h 1.1 z m -0.9,-0.2 h 0.7 v -4.9 h -0.7 z"
   class="st0" />
	</g>
	<g
   id="g100">
		<path
   id="path96"
   d="m 73.7,86.4 h -1.3 v -5.5 h 1.3 z m -0.9,-0.5 h 0.5 v -4.6 h -0.5 z"
   class="st0" />
		<path
   id="path98"
   d="m 73.8,86.5 h -1.5 v -5.7 h 1.5 z m -1.3,-0.2 h 1.2 V 81 H 72.5 Z M 73.4,86 h -0.7 v -4.8 h 0.7 z m -0.5,-0.1 h 0.3 v -4.5 h -0.3 z"
   class="st0" />
	</g>
</g><g
     id="g110">
	<g
   id="g108">
		<path
   id="path104"
   d="M 53.3,74.8 69.9,39 87.3,54.7 Z M 70.1,40.2 55,72.9 86,54.6 Z"
   class="st0" />
		<path
   id="path106"
   d="m 53.1,75 0.1,-0.3 16.6,-35.9 0.1,0.1 17.5,15.8 -0.1,0.1 z M 69.9,39.2 53.5,74.5 87.1,54.7 Z M 54.8,73.1 54.9,72.8 70.1,40 l 0.1,0.1 16,14.5 -0.1,0.1 z M 70.2,40.4 55.2,72.7 85.9,54.6 Z"
   class="st0" />
	</g>
</g><g
     id="g116">
	<g
   id="g114">
		<path
   id="path112"
   d="M 87.3,50.1 74.5,38.5 90.1,34.8 Z M 76,38.9 86.8,48.6"
   class="st0" />
	</g>
</g><g
     id="g122">
	<g
   id="g120">
		<path
   id="path118"
   d="M 53.1,74.6 71.4,39.7 88,56.3 Z M 71.6,40.9 54.9,72.8 86.8,56.1 Z"
   class="st0" />
	</g>
</g><g
     id="g128">
	<g
   id="g126">
		<path
   id="path124"
   d="M 88.2,51.6 76,39.4 91.8,36.5 Z m -10.6,-11.7 10.3,10.3 3,-12.7 z"
   class="st0" />
	</g>
</g></g>
</svg>
