<?xml version="1.0" encoding="utf-8"?>
<!-- Generator: Adobe Illustrator 21.0.0, SVG Export Plug-In . SVG Version: 6.00 Build 0)  -->
<svg version="1.1" id="Calque_1" xmlns="http://www.w3.org/2000/svg" xmlns:xlink="http://www.w3.org/1999/xlink" x="0px" y="0px"
	 viewBox="0 0 385.5 106" style="enable-background:new 0 0 385.5 106;" xml:space="preserve">
<style type="text/css">
	.st0{fill:#120A37;}
	.st1{fill:#C63F3C;}
</style>
<path class="st0" d="M124.5,40.1h-3.5v-6.2h3.5V40.1z M124.5,69.8h-3.5V43.3h3.5V69.8z"/>
<path class="st0" d="M165.8,60.6c-1.6,3.1-3.9,5.5-6.7,7.2c-2.8,1.7-6,2.6-9.6,2.7c-5.1,0.1-9.4-1.8-13-5.4
	c-3.6-3.7-5.4-8.1-5.4-13.2c0-5.3,1.8-9.7,5.4-13.2c3.5-3.5,7.9-5.2,13-5.2c3.6,0,6.8,0.9,9.7,2.7c2.8,1.8,5,4.1,6.5,7.1h-4
	c-3-4.3-7.1-6.5-12.5-6.4c-4,0-7.4,1.4-10.3,4.3c-2.9,2.9-4.3,6.3-4.4,10.4c-0.1,4.2,1.3,7.8,4.3,10.9c3,3.1,6.5,4.6,10.7,4.6
	c2.4,0,4.8-0.6,7.1-1.9c2.2-1.2,3.9-2.7,5.2-4.6H165.8z"/>
<path class="st0" d="M194.9,56.5c0,3.8-1.4,7.1-4.2,9.9c-2.8,2.8-6.1,4.1-9.9,4c-3.7-0.1-6.8-1.5-9.4-4.2c-2.6-2.7-3.8-5.9-3.8-9.6
	c0-3.9,1.4-7.2,4.1-10c2.8-2.8,6-4.1,9.9-4c3.7,0.1,6.8,1.5,9.4,4.3C193.6,49.6,194.9,52.8,194.9,56.5z M191.4,56.3
	c-0.1-2.8-1.1-5.2-3-7.2c-1.9-2-4.2-3-6.9-3c-2.8,0-5.2,1-7.2,3c-2,2-3,4.4-3,7.3c-0.1,2.8,0.9,5.3,2.8,7.4c1.9,2.1,4.2,3.2,6.9,3.3
	c2.9,0.2,5.4-0.9,7.5-3C190.5,61.7,191.5,59.2,191.4,56.3z"/>
<path class="st0" d="M239.5,69.8h-3.7V53.5c0-2-0.6-3.8-1.8-5.3c-1.2-1.5-2.7-2.2-4.7-2.2c-2,0-3.6,0.6-5,1.9
	c-1.4,1.3-2.1,2.9-2.1,4.7v17.1h-3.7V52.7c0-1.9-0.7-3.5-2.1-4.7c-1.4-1.3-3.1-1.9-5-1.9c-1.9,0-3.5,0.7-4.6,2.2
	c-1.1,1.4-1.7,3.2-1.7,5.3v16.3h-3.7V53.9c0-3.3,0.9-6,2.8-8c1.8-1.9,4.1-3,7-3.2c3.8-0.3,6.9,1.3,9.2,4.9c2.3-3.6,5.4-5.2,9.2-4.9
	c2.9,0.2,5.2,1.3,7,3.2c1.9,2,2.9,4.7,2.9,8V69.8z"/>
<path class="st0" d="M273.5,56.5c0,3.9-1.4,7.2-4.1,10c-2.8,2.8-6,4.1-9.9,4c-3.9-0.2-7.2-1.7-9.8-4.7v13.4h-3.4V56.7
	c0-0.1,0-0.2,0-0.2c0-3.8,1.4-7.1,4.2-9.9c2.8-2.8,6.1-4.1,9.9-4c3.7,0.1,6.8,1.5,9.4,4.2S273.5,52.8,273.5,56.5z M269.9,56.8
	c0-2.8-0.9-5.3-2.8-7.4c-1.9-2.1-4.2-3.2-7-3.3c-2.9-0.2-5.4,0.9-7.5,3c-2.1,2.2-3.1,4.7-3,7.7c0.1,2.8,1.1,5.2,3,7.2
	c1.9,2,4.3,3,7,3c2.8,0,5.2-1,7.2-3C268.8,62,269.9,59.6,269.9,56.8z"/>
<path class="st0" d="M306.9,56.5v0.2v13.1h-3.5v-4.1c-2.9,3.3-6.4,4.9-10.6,4.7c-3.6-0.1-6.7-1.5-9.3-4.2c-2.6-2.7-3.8-5.9-3.8-9.6
	c0-3.9,1.4-7.2,4.1-10c2.8-2.8,6.1-4.1,9.9-3.9c3.7,0.1,6.9,1.5,9.5,4.3C305.8,49.6,307.1,52.8,306.9,56.5z M303.4,56.2
	c-0.1-2.8-1.1-5.2-3-7.2c-1.9-2-4.2-3-6.9-3c-2.8,0-5.2,1-7.2,3c-2,2-3,4.4-3,7.2c-0.1,2.8,0.9,5.2,2.8,7.3c1.9,2.1,4.2,3.2,6.9,3.3
	c2.9,0.1,5.4-0.9,7.5-3.1C302.5,61.8,303.5,59.2,303.4,56.2z"/>
<path class="st0" d="M330.3,61.9c0.2,2.4-0.7,4.5-2.5,6.2c-1.9,1.8-4,2.6-6.4,2.4c-2.2-0.2-4.1-1.1-5.6-2.7
	c-1.5-1.6-2.3-3.6-2.3-5.9h3.7v0.9c0,0.9,0.5,1.8,1.5,2.8c1,1,2,1.4,3.2,1.4c1.5,0,2.7-0.5,3.5-1.4c0.8-0.8,1.2-1.9,1.2-3.2
	c0-2.3-1.3-3.8-3.9-4.7l-3.1-1c-3.3-1-5-3.2-5.1-6.7c-0.1-2,0.6-3.8,2.1-5.3c1.5-1.5,3.3-2.2,5.3-2.3c1.8-0.1,3.5,0.5,5.1,1.7
	s2.4,2.8,2.5,4.7v0.8h-3.7v-0.6c0-0.9-0.4-1.7-1.2-2.3c-0.8-0.6-1.7-0.9-2.7-0.9c-1,0-1.9,0.4-2.6,1.1c-0.7,0.7-1.1,1.5-1.1,2.6
	c-0.1,1.9,1,3.3,3.4,4.1l3.1,1C328.2,56,330.1,58.4,330.3,61.9z"/>
<path class="st0" d="M353.4,61.9c0.2,2.4-0.7,4.5-2.5,6.2c-1.9,1.8-4,2.6-6.4,2.4c-2.2-0.2-4.1-1.1-5.6-2.7
	c-1.5-1.6-2.3-3.6-2.3-5.9h3.7v0.9c0,0.9,0.5,1.8,1.5,2.8c1,1,2,1.4,3.2,1.4c1.5,0,2.7-0.5,3.5-1.4c0.8-0.8,1.2-1.9,1.2-3.2
	c0-2.3-1.3-3.8-3.9-4.7l-3.1-1c-3.3-1-5-3.2-5.1-6.7c-0.1-2,0.6-3.8,2.1-5.3c1.5-1.5,3.3-2.2,5.3-2.3c1.8-0.1,3.5,0.5,5.1,1.7
	s2.4,2.8,2.5,4.7v0.8h-3.7v-0.6c0-0.9-0.4-1.7-1.2-2.3c-0.8-0.6-1.7-0.9-2.7-0.9c-1,0-1.9,0.4-2.6,1.1c-0.7,0.7-1.1,1.5-1.1,2.6
	c-0.1,1.9,1,3.3,3.4,4.1l3.1,1C351.2,56,353.1,58.4,353.4,61.9z"/>
<g>
	<circle class="st1" cx="122.3" cy="37" r="4.1"/>
</g>
<g>
	<g>
		<path class="st0" d="M105,53h-0.9c0-16.7-13.6-30.4-30.4-30.4S43.4,36.3,43.4,53h-0.9c0-17.3,14-31.3,31.3-31.3S105,35.8,105,53z"
			/>
	</g>
	<g>
		<path class="st0" d="M105.2,53.2h-1.3V53c0-16.6-13.5-30.2-30.2-30.2c-16.6,0-30.2,13.5-30.2,30.2v0.2h-1.3V53
			c0-17.4,14.1-31.5,31.5-31.5s31.5,14.1,31.5,31.5V53.2z M104.3,52.8h0.5c-0.1-17-14-30.9-31.1-30.9s-31,13.8-31.1,30.9h0.5
			c0.1-16.8,13.8-30.4,30.6-30.4C90.5,22.5,104.2,36.1,104.3,52.8z"/>
		<path class="st0" d="M105.3,53.3h-1.5V53c0-16.6-13.5-30.1-30.1-30.1S43.7,36.5,43.7,53v0.3h-1.5V53c0-17.4,14.2-31.6,31.6-31.6
			s31.6,14.2,31.6,31.6V53.3z M104,53.2h1.2V53c0-17.3-14.1-31.4-31.4-31.4c-17.3,0-31.4,14.1-31.4,31.4v0.1h1.2V53
			c0-16.7,13.6-30.2,30.2-30.2C90.4,22.8,104,36.4,104,53V53.2z M104.9,52.9h-0.7l0-0.1c-0.1-16.7-13.8-30.3-30.5-30.3
			c-16.7,0-30.4,13.6-30.5,30.3l0,0.1h-0.7l0-0.1c0.1-17.1,14.1-31,31.2-31C90.8,21.9,104.8,35.8,104.9,52.9L104.9,52.9z
			 M104.4,52.7h0.3c-0.2-16.9-14-30.7-31-30.7c-16.9,0-30.8,13.8-31,30.7h0.3C43.2,36,57,22.4,73.7,22.4
			C90.5,22.4,104.2,36,104.4,52.7z"/>
	</g>
</g>
<g>
	<g>
		<path class="st0" d="M74.4,86.5c-9.3,0-18.6-3.5-25.7-10.6l0.7-0.7c13.8,13.8,36.3,13.8,50.2,0l0.7,0.7C93,83,83.7,86.5,74.4,86.5
			z"/>
	</g>
	<g>
		<path class="st0" d="M74.4,86.7c-9.8,0-19-3.8-25.9-10.7l-0.1-0.1l0.9-1l0.1,0.1c13.8,13.8,36.1,13.8,49.9,0l0.1-0.1l0.9,1
			l-0.1,0.1C93.4,82.9,84.2,86.7,74.4,86.7z M48.9,75.9c6.8,6.7,15.8,10.4,25.4,10.4c9.6,0,18.6-3.7,25.4-10.4l-0.4-0.4
			c-13.9,13.7-36.3,13.7-50.2,0L48.9,75.9z"/>
		<path class="st0" d="M74.4,86.8c-9.8,0-19-3.8-26-10.7l-0.2-0.2l1.1-1.1l0.2,0.2c13.7,13.7,36,13.7,49.8,0l0.2-0.2l1.1,1.1
			l-0.2,0.2C93.4,83,84.2,86.8,74.4,86.8z M48.5,75.9L48.5,75.9c7,7,16.1,10.8,25.9,10.8c9.8,0,18.9-3.8,25.8-10.7l0.1-0.1l-0.8-0.8
			l-0.1,0.1c-13.8,13.8-36.2,13.8-50,0l-0.1-0.1L48.5,75.9z M74.4,86.4c-9.6,0-18.7-3.7-25.5-10.5l-0.1-0.1l0.5-0.5l0.1,0.1
			c6.7,6.6,15.6,10.3,25,10.3s18.3-3.6,25-10.3l0.1-0.1l0.5,0.5l-0.1,0.1C93.1,82.7,84,86.4,74.4,86.4z M49.1,75.9
			c6.8,6.7,15.8,10.3,25.3,10.3c9.5,0,18.5-3.7,25.3-10.3l-0.2-0.2c-6.7,6.6-15.6,10.3-25.1,10.3S56,82.3,49.3,75.7L49.1,75.9z"/>
	</g>
</g>
<g>
	<g>
		<path class="st0" d="M72.6,89.6c-8.6,0-16.9-3-23.6-8.7c-7.4-6.3-11.9-15.1-12.7-24.8l0.9-0.1c0.8,9.4,5.1,18,12.3,24.2
			c7.2,6.1,16.4,9.1,25.8,8.4l0.1,0.9C74.6,89.6,73.6,89.6,72.6,89.6z"/>
		<path class="st0" d="M72.6,89.7c-8.6,0-17-3.1-23.6-8.7c-7.4-6.3-11.9-15.2-12.7-24.9l0-0.1l1.1-0.1l0,0.1
			c0.7,9.4,5.1,18,12.3,24.1c7.2,6.1,16.3,9.1,25.8,8.3l0.1,0l0.1,1.1l-0.1,0C74.6,89.7,73.6,89.7,72.6,89.7z M36.5,56.2
			c0.8,9.6,5.3,18.4,12.6,24.7c6.6,5.6,14.9,8.7,23.5,8.7c0.9,0,1.9,0,2.8-0.1l-0.1-0.7c-9.4,0.7-18.6-2.3-25.8-8.4
			C42.4,74.2,38,65.6,37.2,56.2L36.5,56.2z"/>
	</g>
	<g>
		<path class="st0" d="M72.6,89.9c-8.7,0-17.1-3.1-23.7-8.8c-7.4-6.3-12-15.2-12.7-25l0-0.2l1.3-0.1l0,0.2c0.7,9.4,5.1,17.9,12.3,24
			c7.2,6.1,16.3,9.1,25.7,8.3l0.2,0l0.1,1.3l-0.2,0C74.6,89.8,73.6,89.9,72.6,89.9z M36.6,56.3c0.8,9.6,5.3,18.2,12.6,24.5
			c7.2,6.2,16.6,9.3,26.1,8.6l0-0.5c-9.4,0.7-18.6-2.3-25.8-8.4c-7.2-6.1-11.6-14.7-12.4-24.1L36.6,56.3z"/>
		<path class="st0" d="M72.6,89.9c-8.7,0-17.1-3.1-23.8-8.8c-7.5-6.4-12-15.2-12.8-25l0-0.3l1.5-0.1l0,0.3c0.7,9.4,5.1,17.9,12.2,24
			c7.2,6.1,16.3,9,25.6,8.3l0.3,0l0.1,1.5l-0.3,0C74.6,89.9,73.6,89.9,72.6,89.9z M36.3,56l0,0.1C37,65.9,41.5,74.7,49,81
			c6.6,5.6,15,8.7,23.6,8.7c1,0,2,0,3-0.1l0.1,0l-0.1-1.2l-0.1,0c-9.4,0.8-18.6-2.2-25.7-8.3C42.5,74,38.2,65.5,37.4,56l0-0.1
			L36.3,56z M72.6,89.5c-8.6,0-16.9-3-23.5-8.7c-7.3-6.2-11.8-14.9-12.6-24.5l0-0.1l0.7-0.1l0,0.1c0.8,9.4,5.2,17.9,12.4,24.1
			c7.2,6.1,16.3,9.1,25.7,8.4l0.1,0l0.1,0.7l-0.1,0C74.4,89.5,73.5,89.5,72.6,89.5z M36.7,56.4c0.8,9.5,5.3,18.1,12.5,24.3
			c7.3,6.2,16.5,9.2,26,8.5l0-0.3c-9.4,0.7-18.6-2.3-25.8-8.5C42.3,74.3,37.9,65.8,37,56.4L36.7,56.4z"/>
	</g>
</g>
<g>
	<g>
		<path class="st0" d="M34.7,63.6c-5.5-20.7,6.8-41.9,27.4-47.5l0.2,0.9c-20.2,5.4-32.2,26.2-26.8,46.3L34.7,63.6z"/>
		<path class="st0" d="M34.6,63.7L34.6,63.7C29,42.9,41.4,21.6,62.1,16l0.1,0l0.3,1.1l-0.1,0c-9.7,2.6-17.9,8.8-22.9,17.6
			c-5.1,8.7-6.4,18.9-3.8,28.6l0,0.1L34.6,63.7z M62,16.2c-20.5,5.5-32.8,26.7-27.3,47.3l0.7-0.2c-2.6-9.7-1.2-19.9,3.8-28.7
			c5.1-8.8,13.2-15,22.9-17.7L62,16.2z"/>
	</g>
	<g>
		<path class="st0" d="M34.5,63.9l-0.1-0.2C28.9,42.9,41.3,21.5,62,15.9l0.2-0.1l0.3,1.3l-0.2,0.1c-9.7,2.6-17.8,8.8-22.8,17.5
			c-5,8.7-6.4,18.9-3.8,28.6l0.1,0.2L34.5,63.9z M61.9,16.4c-20.3,5.6-32.5,26.5-27.1,47l0.5-0.1c-2.5-9.7-1.2-19.9,3.9-28.7
			c5.1-8.8,13.2-15,22.9-17.7L61.9,16.4z"/>
		<path class="st0" d="M34.4,64l-0.1-0.3C28.8,42.9,41.2,21.4,62,15.8l0.3-0.1l0.4,1.5l-0.3,0.1c-9.7,2.6-17.8,8.8-22.8,17.5
			c-5,8.7-6.4,18.8-3.8,28.5l0.1,0.3L34.4,64z M62.2,16l-0.1,0C41.3,21.5,29,42.9,34.5,63.6l0,0.1l1.1-0.3l0-0.1
			c-2.6-9.7-1.3-19.9,3.8-28.6c5-8.7,13.2-15,22.9-17.6l0.1,0L62.2,16z M34.7,63.4L34.7,63.4c-2.6-10-1.2-20.3,3.9-29.2
			S52.1,19,61.9,16.3l0.1,0l0.2,0.7l-0.1,0c-9.7,2.6-17.8,8.9-22.8,17.6c-5,8.7-6.4,18.9-3.9,28.6l0,0.1L34.7,63.4z M61.9,16.5
			c-9.8,2.7-18,9-23.1,17.8c-5.1,8.8-6.5,19.1-3.9,28.9l0.3-0.1c-2.5-9.7-1.1-19.9,3.9-28.6c5.1-8.7,13.2-15,22.9-17.7L61.9,16.5z"
			/>
	</g>
</g>
<g>
	<g>
		<rect x="72.6" y="22.2" class="st0" width="0.9" height="5.1"/>
		<path class="st0" d="M73.6,27.4h-1.1v-5.2h1.1V27.4z M72.7,27.2h0.7v-4.9h-0.7V27.2z"/>
	</g>
	<g>
		<path class="st0" d="M73.7,27.5h-1.3V22h1.3V27.5z M72.8,27.1h0.5v-4.6h-0.5V27.1z"/>
		<path class="st0" d="M73.8,27.6h-1.5v-5.7h1.5V27.6z M72.5,27.4h1.2v-5.3h-1.2V27.4z M73.4,27.1h-0.7v-4.8h0.7V27.1z M72.9,27h0.3
			v-4.5h-0.3V27z"/>
	</g>
</g>
<g>
	<g>
		<rect x="72.6" y="81.1" class="st0" width="0.9" height="5.1"/>
		<path class="st0" d="M73.6,86.3h-1.1V81h1.1V86.3z M72.7,86.1h0.7v-4.9h-0.7V86.1z"/>
	</g>
	<g>
		<path class="st0" d="M73.7,86.4h-1.3v-5.5h1.3V86.4z M72.8,85.9h0.5v-4.6h-0.5V85.9z"/>
		<path class="st0" d="M73.8,86.5h-1.5v-5.7h1.5V86.5z M72.5,86.3h1.2V81h-1.2V86.3z M73.4,86h-0.7v-4.8h0.7V86z M72.9,85.9h0.3
			v-4.5h-0.3V85.9z"/>
	</g>
</g>
<g>
	<g>
		<path class="st0" d="M53.3,74.8L69.9,39l17.4,15.7L53.3,74.8z M70.1,40.2L55,72.9l31-18.3L70.1,40.2z"/>
		<path class="st0" d="M53.1,75l0.1-0.3l16.6-35.9l0.1,0.1l17.5,15.8l-0.1,0.1L53.1,75z M69.9,39.2L53.5,74.5l33.6-19.8L69.9,39.2z
			 M54.8,73.1l0.1-0.3l15.2-32.8l0.1,0.1l16,14.5l-0.1,0.1L54.8,73.1z M70.2,40.4l-15,32.3l30.7-18.1L70.2,40.4z"/>
	</g>
</g>
<g>
	<g>
		<path class="st0" d="M87.3,50.1L74.5,38.5l15.6-3.7L87.3,50.1z M76,38.9l10.8,9.7"/>
	</g>
</g>
<g>
	<g>
		<path class="st0" d="M53.1,74.6l18.3-34.9L88,56.3L53.1,74.6z M71.6,40.9L54.9,72.8l31.9-16.7L71.6,40.9z"/>
	</g>
</g>
<g>
	<g>
		<path class="st0" d="M88.2,51.6L76,39.4l15.8-2.9L88.2,51.6z M77.6,39.9l10.3,10.3l3-12.7L77.6,39.9z"/>
	</g>
</g>
</svg>
