<?xml version="1.0" encoding="utf-8"?>
<!-- Generator: Adobe Illustrator 21.0.0, SVG Export Plug-In . SVG Version: 6.00 Build 0)  -->
<svg version="1.1" id="Calque_1" xmlns="http://www.w3.org/2000/svg" xmlns:xlink="http://www.w3.org/1999/xlink" x="0px" y="0px"
	 viewBox="0 0 385.5 281" style="enable-background:new 0 0 385.5 281;" xml:space="preserve">
<style type="text/css">
	.st0{fill:#FFFFFF;}
	.st1{fill:#E60F42;}
	.st2{fill:#E60F42;stroke:#E60F42;stroke-width:0.6968;stroke-miterlimit:10;}
	.st3{opacity:0.5;fill:#FFFFFF;}
	.st4{fill:#170C8B;}
	.st5{fill:#E60F42;stroke:#E60F42;stroke-width:0.8858;stroke-miterlimit:10;}
	.st6{fill:#009DA6;}
	.st7{fill:#170C8B;stroke:#170C8B;stroke-width:1.2319;stroke-miterlimit:10;}
	.st8{fill:#170C8B;stroke:#170C8B;stroke-width:1.1907;stroke-miterlimit:10;}
	.st9{fill:#170C8B;stroke:#170C8B;stroke-width:0.5421;stroke-miterlimit:10;}
</style>
<g>
	<path class="st0" d="M-537.5,174c-0.7,0-1.4-0.1-2.1-0.2c-0.7-0.1-1.3-0.4-1.9-0.8c-0.4-0.3-0.7-0.6-1-1.1c0.9-1.2,1.6-2.5,2.1-3.9
		c0.5-1,0.7-2.1,0.7-2.2l0.1-0.3h-3.8l0,0.2c-0.5,1.8-1.3,3.4-2.5,4.7c-1.1,1.3-2.5,2.4-4,3.2c-1.5,0.8-3.1,1.3-4.8,1.5
		c-1.7,0.2-3.4,0.1-5.1-0.4c-1.7-0.5-3.2-1.3-4.5-2.4c-1.3-1.1-2.4-2.4-3.2-3.9c-0.8-1.5-1.4-3.1-1.6-4.8c-0.3-1.7-0.1-3.4,0.3-5.1
		c0.3-0.9,0.6-1.8,1.1-2.7c0.5-0.9,1.1-1.7,1.8-2.5c0.7-0.8,1.5-1.4,2.3-2.1c0.9-0.6,1.8-1.1,2.9-1.5l0.2-0.1l-1.4-3.5l-0.2,0.1
		c-1.3,0.5-2.6,1.2-3.9,2.1l-8-0.2c-1.3-0.1-2.8,0.2-3.6,0.5c-0.8,0.3-1.6,0.8-2.2,1.4c-0.6,0.6-1.1,1.2-1.4,2
		c-0.3,0.8-0.5,1.6-0.5,2.5v24h3.7v-24c0-0.7,0.3-1.3,0.8-1.9c0.3-0.3,0.7-0.5,1-0.6c0.4-0.1,0.8-0.2,1.1-0.2l0.8,0
		c1.4,0.1,2.9,0.6,3.9,1.1c-0.9,1.4-1.6,2.9-2.1,4.6c-0.6,2.3-0.8,4.5-0.5,6.7c0.3,2.2,1,4.3,2,6.2c1.1,1.9,2.5,3.5,4.2,5
		c1.7,1.4,3.7,2.5,6,3.1c1.6,0.4,3.1,0.7,4.7,0.7c0.7,0,1.4,0,2.1-0.1c2.2-0.3,4.3-1,6.2-2c0.8-0.5,1.6-1,2.3-1.6
		c0.5,0.9,1.2,1.5,2.2,2c1.5,0.8,3,1.2,4.7,1.2h2l0.1-4.5H-537.5z"/>
	<g>
		<g>
			<path class="st1" d="M-388.8,107.6c0,3.7,3,6.8,6.8,6.8c3.7,0,6.8-3,6.8-6.8c0-3.7-3-6.8-6.8-6.8S-388.8,103.9-388.8,107.6z"/>
		</g>
	</g>
	<path class="st2" d="M-343.2,193.3L-343.2,193.3c0.7-0.3,1.1-1.1,0.8-1.9l-18-42.3c-0.3-0.7-1.1-1.1-1.9-0.8l0,0
		c-0.7,0.3-1.1,1.1-0.8,1.9l18,42.3C-344.8,193.3-343.9,193.6-343.2,193.3z"/>
	<g>
		<g>
			<g>
				<g>
					<path class="st0" d="M-393.7,153.6c-7.9,0-15.5-2.9-21.5-8c-0.9-0.8-2.3-0.7-3,0.2c-0.8,0.9-0.7,2.3,0.2,3
						c2.9,2.5,6.3,4.6,9.8,6.1l-2.7,36.3c-0.1,1.2,0.8,2.2,2,2.3c0.1,0,0.1,0,0.2,0c1.1,0,2.1-0.9,2.1-2l2.6-35.1
						c3.3,1,6.8,1.5,10.4,1.5c2.2,0,4-1.7,4.2-3.9c4,1.2,8.1,1.9,12.3,2c0,0,0.1,0,0.1,0c1.2,0,2.1-0.9,2.2-2.1
						c0-1.2-0.9-2.2-2.1-2.2c-4.2-0.1-8.4-0.9-12.4-2.3v-28.9L-393.7,153.6z M-358.7,76.6c-7.3-4.6-15.9-7.1-24.8-7
						c-9.2,0.1-18,2.8-25.5,7.9c5.9-10.1,28.1-23.9,41.6-27.3c1.2-0.3,1.9-1.5,1.6-2.6c-0.3-1.2-1.5-1.9-2.6-1.6
						c-11.7,2.9-33.3,14.2-42.5,27.1c-6.8,7.7-10.7,15.6-12.3,19.6c-0.1,0.1-0.1,0.3-0.1,0.4c-3.6,6.5-5.6,13.9-5.7,21.6
						c0,0.7,0,1.5,0,2.2c-1.1,0.8-1.9,2-1.9,3.5c0,7.3,2.1,14.4,6.1,20.4c0.7,1,2,1.3,3,0.6c1-0.7,1.3-2,0.6-3
						c-3.5-5.3-5.4-11.6-5.4-18l1.8-4.3c0-0.5,0-1,0-1.5c0.3-22.5,18.9-40.9,41.3-41c0.1,0,0.2,0,0.3,0c11.1,0,21.5,4.3,29.3,12.1
						c7.9,7.9,12.3,18.3,12.3,29.5c0,8.7-2.6,17-7.6,24c-0.7,1-0.5,2.3,0.5,3c0.4,0.3,0.8,0.4,1.2,0.4c0.7,0,1.3-0.3,1.8-0.9
						c2.7-3.8,4.8-8,6.2-12.4c1.5,7.6,8.2,30.2,12.4,40c0.4,0.8,1.1,1.3,2,1.3c0.3,0,0.6-0.1,0.9-0.2c1.1-0.5,1.6-1.7,1.1-2.8
						c-12-27-14.1-51-14.2-52.4c0-9.1-2.7-17.9-7.6-25.3C-353.2,80.1-356.7,78.2-358.7,76.6z M-347.5,86.6 M-355.2,79.1"/>
				</g>
			</g>
			<polygon class="st0" points="-397.2,115.2 -427.8,115.3 -427.6,120.2 			"/>
			<path class="st0" d="M-383.9,70.7c4.9-7.9,11.6-13.9,20-17.7c0.8-0.4,1.8,0,2.2,0.8c0.4,0.8,0,1.7-0.8,2.1
				c-9.6,4.4-15.6,11.2-19.3,17.7"/>
			<path class="st0" d="M-372.5,71.8c3.1-5,7.4-8.8,12.7-11.2c0.5-0.2,1.1,0,1.4,0.5c0.2,0.5,0,1.1-0.5,1.3
				c-6.1,2.8-9.9,7.1-12.3,11.2"/>
		</g>
		<path class="st0" d="M-407.5,132.2c0,0-13.6,11.4-16,9.4C-423.6,141.7-417.1,137.6-407.5,132.2z"/>
	</g>
	<path class="st0" d="M-546.9,205.9c-0.1,3.7-1.3,6.9-3.8,9.6c-2.4,2.7-5.4,4.2-9,4.5l-1.4,0.1l13.2,17.7h-5.9l-16.1-21.5h4.6
		c4.2,0,7.5-1.1,9.9-3.2c2.4-2.1,3.6-4.8,3.4-8.1c-0.1-3-1.2-5.4-3.2-7.2c-2.2-2-5.1-3-8.7-3h-10.6v43h-4.9v-47.5h15.2
		c5.3,0,9.5,1.5,12.6,4.4C-548.3,197.6-546.8,201.4-546.9,205.9z"/>
	<path class="st0" d="M-489.7,238.8h-4.7v-39.6h4.7V238.8z"/>
	<path class="st0" d="M-435.2,225.6c-2.2,4.1-5.1,7.3-8.9,9.6c-3.7,2.3-8,3.5-12.7,3.6c-6.7,0.1-12.5-2.3-17.3-7.2
		c-4.8-4.9-7.2-10.7-7.2-17.5c0-7,2.4-12.8,7.2-17.5c4.7-4.6,10.4-6.9,17.2-6.9c4.7,0,9,1.3,12.9,3.6c3.7,2.3,6.6,5.5,8.7,9.4h-5.4
		c-4-5.8-9.5-8.6-16.6-8.5c-5.3,0-9.8,1.9-13.6,5.7c-3.8,3.8-5.8,8.4-5.9,13.7c-0.1,5.6,1.8,10.4,5.7,14.4c3.9,4.1,8.7,6.1,14.2,6.1
		c3.2,0,6.3-0.8,9.4-2.5c2.9-1.6,5.2-3.6,6.9-6.1H-435.2z"/>
	<g>
		<circle class="st1" cx="-496.6" cy="189.7" r="3.9"/>
		<circle class="st1" cx="-487.3" cy="189.7" r="3.9"/>
	</g>
	<path class="st0" d="M-505.8,238.8v-19.2c0-2.1-0.4-4-1.1-5.9c-0.7-1.9-1.8-3.5-3.2-4.9c-1.4-1.4-3-2.5-4.9-3.4
		c-1.9-0.8-4-1.2-6.2-1.2c-2.2,0-4.2,0.4-6,1.3c-1.9,0.9-3.5,2-4.8,3.5c-1.4,1.4-2.4,3.1-3.2,5c-0.8,1.9-1.2,3.7-1.2,5.6
		c0,1.9,0.4,3.8,1.3,5.6c0.9,1.8,2,3.5,3.5,4.9c1.4,1.4,3.1,2.6,4.9,3.5c1.8,0.9,3.7,1.3,5.6,1.3v3.9c-2.6,0-5.1-0.5-7.4-1.5
		c-2.3-1-4.4-2.4-6.1-4.1c-1.8-1.8-3.1-3.8-4.1-6.1c-1-2.3-1.5-4.8-1.5-7.4c0-2.5,0.5-4.9,1.4-7.3c0.9-2.3,2.2-4.4,3.9-6.1
		c1.7-1.8,3.7-3.2,6-4.3c2.3-1.1,5-1.6,7.9-1.6c2.6,0,5.1,0.5,7.5,1.6c2.3,1.1,4.4,2.5,6.1,4.3c1.8,1.8,3.1,3.8,4.1,6.1
		c1,2.3,1.5,4.7,1.5,7.3v19.2H-505.8z"/>
	<path class="st3" d="M-386.6,216.9c0,2.2-0.4,4.4-1.2,6.6c-0.8,2.2-2,4.2-3.6,6c-1.6,1.8-3.5,3.2-5.8,4.3c-2.3,1.1-5,1.7-8,1.7
		v-3.7c1.9,0,3.8-0.3,5.6-1c1.8-0.7,3.4-1.7,4.7-3c1.4-1.3,2.5-2.9,3.3-4.7c0.8-1.8,1.2-3.9,1.2-6.2c0-1.8-0.3-3.6-1-5.4
		c-0.7-1.8-1.7-3.4-3-4.8c-1.3-1.4-2.9-2.5-4.7-3.4c-1.8-0.9-3.9-1.3-6.2-1.3c-1.9,0-3.7,0.3-5.5,1c-1.8,0.7-3.4,1.7-4.7,3
		c-1.4,1.3-2.5,2.9-3.4,4.7c-0.8,1.8-1.3,3.9-1.3,6.2h-3.7c0-2.5,0.5-4.9,1.5-7.1c1-2.3,2.3-4.2,4-5.9c1.7-1.7,3.6-3,5.9-4
		c2.3-1,4.7-1.5,7.3-1.5c2.6,0,5.1,0.5,7.4,1.5c2.3,1,4.2,2.3,5.9,4c1.7,1.7,3,3.7,3.9,5.9C-387.1,212.1-386.6,214.4-386.6,216.9z"
		/>
	<path class="st0" d="M-373.9,211.6c0.5-2.1,1.9-4.2,3.3-5.9c1.4-1.7,3.1-3,5-4c1.9-1,3.9-1.5,6.1-1.5c2.5,0,4.7,0.5,6.5,1.5
		c1.8,1,3.3,2.1,4.4,3.3c1.3,1.4,2.5,3.1,3.4,4.9c0.8-1.8,1.8-3.4,3.1-4.9c1.1-1.2,2.6-2.3,4.4-3.3c1.8-1,4-1.5,6.7-1.5
		c2.1,0,4.1,0.4,6,1.3c1.9,0.9,3.6,2.1,5,3.7c1.4,1.6,2.6,3.5,3.4,5.8c0.8,2.3,1.3,4.8,1.3,7.6v18.9h-3.7v-18.9
		c0-2.5-0.4-4.7-1.3-6.6c-0.9-1.9-2-3.4-3.3-4.6c-1.3-1.2-2.6-2.1-4-2.7c-1.4-0.6-2.5-0.9-3.5-0.9c-1.8,0-3.5,0.4-5.1,1.3
		c-1.5,0.8-2.9,2-4,3.4c-1.1,1.4-1.9,3-2.5,4.7c-0.6,1.8-0.9,3.6-0.9,5.4v18.9h-3.7v-18.9c0-1.9-0.3-3.8-0.9-5.6
		c-0.6-1.8-1.4-3.4-2.5-4.7c-1.1-1.4-2.4-2.5-4-3.3c-1.5-0.8-3.2-1.2-5.1-1.2c-1.6,0-3.1,0.4-4.6,1.2c-1.4,0.8-2.7,1.8-3.8,3.1
		c-1.1,1.3-2.2,3-2.6,4.7c-0.4,1.6-0.5,4.8-0.5,5.6c0,17.9,0,0.5-0.1,19.9h-3.7c0-1.7,0.1-11.8,0-19.8
		C-374.7,215.2-374.1,212.4-373.9,211.6z"/>
	<g>
		<path class="st0" d="M-410.3,234.4c2.4,0.7,4.7,0.9,7.1,0.6c2.4-0.3,4.7-1,6.7-2.1c2.1-1.1,3.9-2.6,5.5-4.5c1.6-1.9,2.7-4,3.4-6.5
			l4.2,1.2c-0.9,3.1-2.3,5.8-4.2,8.1c-1.9,2.4-4.1,4.2-6.7,5.7c-2.5,1.4-5.3,2.3-8.3,2.7c-3,0.4-6,0.2-9.1-0.7
			c-3.1-0.9-5.8-2.3-8.1-4.2c-2.3-1.9-4.2-4.1-5.7-6.7c-1.4-2.5-2.3-5.3-2.7-8.3c-0.4-3-0.2-6,0.7-9.1c1-3.6,2.8-6.7,5.3-9.3
			c2.5-2.6,5.4-4.5,8.7-5.7l1.7,4.2c-1.4,0.6-2.8,1.3-4,2.1c-1.2,0.8-2.3,1.8-3.3,2.9c-1,1.1-1.8,2.2-2.5,3.4
			c-0.7,1.2-1.2,2.5-1.6,3.8c-0.7,2.4-0.8,4.7-0.5,7.1c0.4,2.4,1.1,4.6,2.3,6.7c1.1,2.1,2.7,3.9,4.5,5.4
			C-414.7,232.6-412.6,233.8-410.3,234.4z"/>
		<path class="st0" d="M-387.4,221.9h4.6c0,0-0.3,1.6-1,2.9C-385.1,227.5-387.4,221.9-387.4,221.9z"/>
	</g>
	<path class="st0" d="M-506,163.5c0-1.1-0.4-2.1-1.3-2.9c-0.9-0.9-2-1.3-3.3-1.3h-22.9V157v-2.4v-4c0-1.2,0.2-2.3,0.7-3.4
		c0.5-1.1,1.1-2,2-2.8c0.8-0.8,1.9-1.5,3-1.9c0.5-0.2,1.1-0.4,1.7-0.5c0.3-0.1,0.6-0.1,0.9-0.1c0.3,0,0.6-0.1,0.9-0.1h17.1v4.6
		h-17.1h-0.2h0.2c-0.6,0-1.2,0.1-1.8,0.3c-0.5,0.2-1,0.5-1.5,1c-0.9,0.8-1.3,1.8-1.3,2.9v4h18.3c1.2,0,2.4,0.2,3.5,0.7
		c1.1,0.5,2.1,1.1,3,1.9c0.8,0.8,1.4,1.7,1.9,2.8c0.5,1.1,0.8,2.2,0.8,3.5v2.7v3.5c0,0.6,0.1,1.1,0.4,1.7c0.2,0.5,0.6,1,1,1.3
		c0.9,0.9,3.1,0.8,3.1,0.8l0.1,5h-0.1h0.1c-1.2,0-2.4-0.2-3.5-0.7c-1.1-0.4-1.7,1.1-2.5,0.3l-0.8-0.9l-0.5-1.3
		c-0.8,0.8-1.7,1.4-2.9,1.9c-1.1,0.5-2.3,0.7-3.6,0.7H-538v-4.5h27.4c0.6,0,1.2-0.1,1.8-0.4c0.6-0.2,1.1-0.6,1.5-1
		c0.9-0.8,1.3-1.7,1.3-2.9v-3.6V163.5z"/>
	<rect x="-481.5" y="140.5" class="st0" width="3.8" height="38"/>
	<path class="st0" d="M-462.7,148.2v30.9c0,1-0.2,2-0.6,2.9c-0.4,0.9-1,1.7-1.7,2.4c-0.7,0.7-1.5,1.2-2.4,1.5
		c-0.9,0.4-1.9,0.5-2.9,0.5h0.1h-0.1v-3.8h0.1h-0.1c0.5,0,1-0.1,1.5-0.3c0.5-0.2,0.9-0.5,1.2-0.8c0.7-0.7,1.1-1.5,1.1-2.5v-30.9
		H-462.7z"/>
	<path class="st0" d="M-489.8,152.5L-489.8,152.5l-2.1,0v20.2c-0.2,0.2-0.4,0.5-0.6,0.7h-4.6l-0.1,0.3h-4c-0.8,0-1.5,0.2-1.9,0.7
		c-0.4,0.5-0.6,1-0.6,1.6c0,0.6,0.2,1.2,0.6,1.7c0.4,0.5,1,0.7,1.9,0.7h8.2c1.5,0,2.8-0.5,4-1.4c1.2-0.9,1.8-2.4,1.8-4.5l0.1-20.1
		H-489.8z"/>
	<path class="st3" d="M-542.7,162.1c0,1.6-0.3,3.2-0.9,4.8c-0.6,1.6-1.4,3.1-2.6,4.4c-1.1,1.3-2.6,2.3-4.3,3.2
		c-1.7,0.8-3.7,1.2-5.9,1.2V173c1.4,0,2.8-0.3,4.1-0.8c1.3-0.5,2.5-1.2,3.5-2.2c1-0.9,1.8-2.1,2.4-3.4c0.6-1.3,0.9-2.8,0.9-4.5
		c0-1.3-0.3-2.6-0.8-3.9c-0.5-1.3-1.2-2.5-2.2-3.5c-0.9-1-2.1-1.8-3.4-2.5c-1.3-0.6-2.8-1-4.5-1c-1.4,0-2.7,0.3-4,0.8
		c-1.3,0.5-2.5,1.2-3.5,2.2c-1,0.9-1.8,2.1-2.5,3.4c-0.6,1.3-0.9,2.8-0.9,4.5h-2.7c0-1.8,0.4-3.6,1.1-5.2c0.7-1.7,1.7-3.1,2.9-4.3
		c1.2-1.2,2.7-2.2,4.3-3c1.7-0.7,3.4-1.1,5.3-1.1c1.9,0,3.7,0.4,5.4,1.1c1.7,0.7,3.1,1.7,4.3,3c1.2,1.2,2.2,2.7,2.9,4.3
		C-543.1,158.5-542.7,160.3-542.7,162.1z"/>
</g>
<g>
	<path class="st4" d="M75.4,182c-0.9,0-1.8-0.1-2.7-0.3c-0.9-0.2-1.7-0.5-2.4-1.1c-0.5-0.3-0.9-0.8-1.3-1.4c1.1-1.5,2-3.2,2.6-5
		c0.6-1.3,0.9-2.7,0.9-2.8l0.1-0.4h-4.9l-0.1,0.2c-0.6,2.3-1.7,4.3-3.1,6c-1.4,1.7-3.1,3.1-5,4.1c-1.9,1-4,1.7-6.2,1.9
		c-2.2,0.3-4.4,0.1-6.5-0.5c-2.1-0.6-4.1-1.6-5.8-3.1c-1.7-1.4-3.1-3.1-4.1-5c-1-1.9-1.7-3.9-2.1-6.1c-0.3-2.2-0.2-4.4,0.4-6.5
		c0.3-1.2,0.8-2.3,1.4-3.4c0.6-1.1,1.4-2.2,2.3-3.1c0.9-1,1.9-1.8,3-2.6c1.1-0.8,2.3-1.4,3.6-1.9l0.3-0.1l-1.8-4.4l-0.3,0.1
		c-1.7,0.6-3.3,1.5-4.9,2.6L28.7,149c-1.7-0.1-3.6,0.2-4.6,0.7c-1.1,0.4-2,1-2.8,1.7c-0.8,0.7-1.4,1.6-1.8,2.6c-0.4,1-0.6,2-0.6,3.1
		v30.5h4.7V157c0-0.9,0.3-1.7,1-2.4c0.4-0.3,0.8-0.6,1.2-0.8c0.5-0.2,1-0.3,1.5-0.3l1,0c1.7,0.1,3.7,0.7,5,1.4
		c-1.2,1.8-2.1,3.7-2.6,5.8c-0.8,2.9-1,5.7-0.7,8.6c0.4,2.8,1.2,5.5,2.6,7.9c1.3,2.4,3.1,4.5,5.3,6.3c2.2,1.8,4.8,3.1,7.6,3.9
		c2,0.6,4,0.8,5.9,0.8c0.9,0,1.8-0.1,2.6-0.2c2.8-0.4,5.5-1.2,7.8-2.6c1-0.6,2-1.3,2.9-2c0.7,1.1,1.6,1.9,2.8,2.6
		c1.8,1,3.8,1.5,5.9,1.5h2.5l0.1-5.7H75.4z"/>
	<g>
		<g>
			<g>
				<path class="st1" d="M264.4,97.6c0,4.8,3.9,8.6,8.6,8.6c4.8,0,8.6-3.9,8.6-8.6c0-4.8-3.9-8.6-8.6-8.6
					C268.3,89,264.4,92.8,264.4,97.6z"/>
			</g>
		</g>
		<path class="st5" d="M322.3,206.5L322.3,206.5c0.9-0.4,1.4-1.5,1-2.4l-22.9-53.7c-0.4-0.9-1.5-1.4-2.4-1l0,0
			c-0.9,0.4-1.4,1.5-1,2.4l22.9,53.7C320.4,206.4,321.4,206.9,322.3,206.5z"/>
		<g>
			<g>
				<g>
					<path class="st6" d="M258.2,156.1c-10,0-19.7-3.6-27.3-10.2c-1.1-1-2.9-0.9-3.9,0.3c-1,1.1-0.9,2.9,0.3,3.9
						c3.7,3.2,7.9,5.8,12.4,7.7l-3.4,46.1c-0.1,1.5,1,2.8,2.5,2.9c0.1,0,0.1,0,0.2,0c1.4,0,2.6-1.1,2.7-2.5l3.3-44.6
						c4.3,1.2,8.7,1.9,13.2,1.9c2.8,0,5.1-2.2,5.3-4.9c5.1,1.6,10.3,2.4,15.6,2.6c0,0,0.1,0,0.1,0c1.5,0,2.7-1.2,2.7-2.7
						c0-1.5-1.2-2.8-2.7-2.8c-5.4-0.1-10.6-1.1-15.7-2.9v-36.8L258.2,156.1z M302.6,58.2c-9.3-5.9-20.2-9-31.5-9
						c-11.7,0.1-22.9,3.6-32.4,10.1c7.5-12.8,35.8-30.4,52.9-34.7c1.5-0.4,2.4-1.9,2-3.3c-0.4-1.5-1.9-2.4-3.3-2
						c-14.9,3.7-42.3,18-54,34.5c-8.7,9.8-13.5,19.8-15.7,25c-0.1,0.2-0.1,0.4-0.2,0.6c-4.6,8.3-7.1,17.7-7.3,27.4
						c0,0.9,0,1.9,0,2.9c-1.4,1-2.4,2.6-2.4,4.5c0,9.3,2.7,18.3,7.7,26c0.8,1.3,2.5,1.6,3.8,0.8c1.3-0.8,1.6-2.5,0.8-3.8
						c-4.5-6.8-6.8-14.7-6.8-22.9l2.4-5.5c0-0.6,0-1.3,0-1.9c0.4-28.6,24-51.9,52.5-52.1c0.1,0,0.2,0,0.3,0
						c14.1,0,27.3,5.5,37.3,15.4c10.1,10,15.6,23.3,15.6,37.5c0,11-3.4,21.6-9.7,30.5c-0.9,1.2-0.6,2.9,0.7,3.8
						c0.5,0.3,1,0.5,1.6,0.5c0.9,0,1.7-0.4,2.2-1.2c3.5-4.9,6.1-10.2,7.9-15.8c1.9,9.6,10.4,38.4,15.8,50.8c0.4,1,1.5,1.7,2.5,1.7
						c0.4,0,0.7-0.1,1.1-0.2c1.4-0.6,2-2.2,1.4-3.6c-15.3-34.4-17.9-64.9-18-66.6c0-11.6-3.4-22.7-9.7-32.2
						C309.7,62.6,305.2,60.2,302.6,58.2z M316.9,70.9 M307.1,61.4"/>
				</g>
			</g>
			<polygon class="st6" points="253.8,107.2 214.8,107.3 215.1,113.6 			"/>
			<path class="st6" d="M270.6,50.6c6.2-10.1,14.8-17.7,25.4-22.5c1-0.5,2.3,0,2.8,1c0.5,1,0,2.2-1,2.7
				c-12.2,5.6-19.8,14.3-24.5,22.5"/>
			<path class="st6" d="M285.1,52c4-6.4,9.4-11.2,16.1-14.3c0.7-0.3,1.4,0,1.8,0.6c0.3,0.6,0,1.4-0.7,1.7
				c-7.8,3.5-12.6,9.1-15.6,14.3"/>
		</g>
		<path class="st6" d="M240.6,128.9c0,0-17.3,14.5-20.4,12C220.2,140.8,228.4,135.7,240.6,128.9z"/>
	</g>
	<path class="st4" d="M63.4,222.5c-0.1,4.7-1.7,8.8-4.8,12.2c-3.1,3.4-6.9,5.4-11.5,5.8l-1.7,0.2l16.7,22.5h-7.5l-20.4-27.3h5.9
		c5.3,0,9.5-1.4,12.6-4.1c3.1-2.7,4.5-6.1,4.3-10.3c-0.2-3.8-1.5-6.8-4.1-9.2c-2.8-2.6-6.4-3.8-11-3.8H28.5v54.7h-6.2v-60.4h19.3
		c6.7,0,12,1.8,16,5.5C61.6,212,63.5,216.7,63.4,222.5z"/>
	<path class="st4" d="M136.1,264.4h-6v-50.3h6V264.4z"/>
	<path class="st4" d="M205.4,247.6c-2.8,5.2-6.5,9.3-11.3,12.2c-4.7,2.9-10.1,4.4-16.1,4.5c-8.5,0.1-15.9-3-22-9.2
		c-6.1-6.2-9.2-13.7-9.2-22.3c0-8.9,3.1-16.3,9.2-22.2c6-5.9,13.3-8.8,21.9-8.7c6,0.1,11.5,1.6,16.4,4.6c4.7,3,8.4,7,11,12h-6.8
		c-5-7.3-12-10.9-21.1-10.8c-6.7,0-12.5,2.4-17.3,7.3c-4.8,4.8-7.3,10.7-7.5,17.5c-0.2,7.1,2.3,13.2,7.3,18.3c5,5.2,11,7.7,18,7.7
		c4.1,0,8.1-1.1,11.9-3.2c3.7-2,6.6-4.6,8.7-7.7H205.4z"/>
	<g>
		<circle class="st1" cx="127.3" cy="201.9" r="5"/>
		<circle class="st1" cx="139.2" cy="201.9" r="5"/>
	</g>
	<path class="st7" d="M115.7,264.4V240c0-2.6-0.5-5.1-1.4-7.5c-1-2.4-2.3-4.4-4-6.2c-1.7-1.8-3.8-3.2-6.2-4.3c-2.4-1-5-1.6-7.9-1.6
		c-2.8,0-5.3,0.6-7.7,1.7c-2.4,1.1-4.4,2.6-6.1,4.4c-1.7,1.8-3.1,3.9-4.1,6.3c-1,2.4-1.5,4.8-1.5,7.2c0,2.4,0.6,4.8,1.7,7.1
		c1.1,2.3,2.6,4.4,4.4,6.2c1.8,1.8,3.9,3.3,6.2,4.4c2.3,1.1,4.7,1.7,7.1,1.7v4.9c-3.3,0-6.5-0.6-9.4-1.9c-2.9-1.3-5.5-3-7.8-5.3
		c-2.2-2.2-4-4.8-5.3-7.8c-1.3-2.9-1.9-6.1-1.9-9.4c0-3.2,0.6-6.3,1.8-9.2c1.2-2.9,2.8-5.6,5-7.8c2.1-2.3,4.7-4.1,7.7-5.4
		c3-1.3,6.3-2,10-2c3.3,0,6.5,0.7,9.5,2c3,1.3,5.6,3.1,7.8,5.4c2.2,2.3,4,4.9,5.3,7.8c1.3,2.9,1.9,6,1.9,9.2v24.4H115.7z"/>
	<path class="st6" d="M267.2,236.5c0,2.8-0.5,5.6-1.5,8.4c-1,2.8-2.5,5.4-4.5,7.6c-2,2.2-4.5,4.1-7.4,5.5c-2.9,1.4-6.4,2.1-10.2,2.1
		v-4.8c2.5,0,4.8-0.4,7.1-1.3c2.3-0.9,4.3-2.2,6-3.8c1.7-1.6,3.1-3.6,4.2-5.9c1-2.3,1.6-4.9,1.6-7.8c0-2.3-0.4-4.6-1.3-6.8
		c-0.9-2.3-2.2-4.3-3.8-6.1c-1.6-1.8-3.6-3.2-5.9-4.3c-2.3-1.1-4.9-1.7-7.8-1.7c-2.4,0-4.7,0.4-7,1.3c-2.2,0.9-4.3,2.2-6,3.8
		c-1.8,1.6-3.2,3.6-4.3,5.9c-1.1,2.3-1.6,4.9-1.6,7.8h-4.8c0-3.2,0.6-6.2,1.9-9.1c1.2-2.9,2.9-5.4,5-7.6c2.1-2.2,4.6-3.9,7.5-5.1
		c2.9-1.3,6-1.9,9.3-1.9c3.4,0,6.5,0.6,9.4,1.9c2.9,1.3,5.4,3,7.5,5.1c2.1,2.2,3.8,4.7,5,7.6C266.6,230.3,267.2,233.4,267.2,236.5z"
		/>
	<path class="st8" d="M283.3,229.8c0.7-2.6,2.4-5.3,4.2-7.5c1.8-2.1,3.9-3.8,6.3-5c2.4-1.2,5-1.9,7.8-1.9c3.2,0,6,0.7,8.3,1.9
		c2.3,1.3,4.2,2.7,5.7,4.2c1.7,1.8,3.1,3.9,4.3,6.2c1-2.3,2.3-4.3,4-6.2c1.5-1.5,3.3-2.9,5.6-4.2c2.3-1.3,5.1-1.9,8.6-1.9
		c2.7,0,5.2,0.6,7.6,1.7c2.4,1.1,4.5,2.7,6.4,4.8c1.8,2,3.3,4.5,4.4,7.4c1.1,2.9,1.6,6.1,1.6,9.6v24h-4.7v-24c0-3.2-0.6-6-1.7-8.4
		c-1.1-2.4-2.5-4.3-4.1-5.8c-1.6-1.5-3.3-2.7-5-3.4c-1.7-0.8-3.2-1.1-4.4-1.1c-2.3,0-4.5,0.5-6.5,1.6c-2,1.1-3.6,2.5-5,4.3
		c-1.4,1.8-2.5,3.8-3.2,6c-0.8,2.3-1.1,4.5-1.1,6.9v24h-4.7v-24c0-2.5-0.4-4.8-1.1-7.1c-0.8-2.3-1.8-4.3-3.2-6
		c-1.4-1.7-3.1-3.1-5-4.1c-2-1-4.1-1.5-6.5-1.5c-2,0-4,0.5-5.8,1.5c-1.8,1-3.5,2.3-4.8,4c-1.4,1.7-2.8,3.9-3.3,5.9
		c-0.6,2-0.6,6.1-0.6,7.1c-0.1,22.7,0,0.6-0.1,25.3h-4.7c0-2.2,0.1-15,0.1-25.2C282.3,234.3,283,230.8,283.3,229.8z"/>
	<g>
		<path class="st4" d="M237.1,258.8c3,0.9,6,1.1,9.1,0.7c3.1-0.4,5.9-1.3,8.6-2.7c2.6-1.4,5-3.3,7-5.7c2-2.4,3.5-5.1,4.4-8.3
			l5.4,1.5c-1.1,3.9-2.9,7.3-5.3,10.3c-2.4,3-5.3,5.4-8.5,7.2c-3.2,1.8-6.8,2.9-10.6,3.4c-3.8,0.5-7.7,0.2-11.6-0.9
			c-3.9-1.1-7.3-2.9-10.3-5.3c-3-2.4-5.4-5.3-7.2-8.5c-1.8-3.2-3-6.8-3.5-10.6c-0.5-3.8-0.2-7.7,0.9-11.6c1.3-4.6,3.5-8.5,6.7-11.9
			c3.2-3.3,6.9-5.8,11.1-7.3l2.1,5.3c-1.8,0.7-3.5,1.6-5,2.7c-1.5,1.1-2.9,2.3-4.1,3.6c-1.2,1.3-2.3,2.8-3.1,4.4
			c-0.9,1.6-1.5,3.2-2,4.8c-0.9,3-1.1,6-0.6,9.1c0.4,3.1,1.4,5.9,2.9,8.5c1.5,2.6,3.4,4.9,5.7,6.9
			C231.5,256.5,234.1,257.9,237.1,258.8z"/>
		<path class="st4" d="M266.1,242.8h5.8c0,0-0.4,2-1.2,3.7C269.1,250,266.1,242.8,266.1,242.8z"/>
	</g>
	<path class="st4" d="M115.4,168.6c0-1.4-0.6-2.6-1.7-3.7s-2.5-1.7-4.2-1.7H80.5v-2.9v-3v-5.1c0-1.5,0.3-3,0.9-4.3
		c0.6-1.3,1.4-2.5,2.5-3.6c1.1-1,2.4-1.8,3.8-2.4c0.7-0.3,1.4-0.5,2.2-0.6c0.4-0.1,0.8-0.1,1.2-0.2c0.4,0,0.7-0.1,1.1-0.1h21.8v5.8
		H92.2H92h0.2c-0.7,0-1.5,0.1-2.3,0.4c-0.7,0.3-1.3,0.7-1.9,1.2c-1.1,1-1.7,2.3-1.7,3.7v5.1h23.3c1.6,0,3,0.3,4.4,0.9
		c1.4,0.6,2.7,1.4,3.8,2.4c1,1,1.8,2.2,2.5,3.6c0.7,1.4,1,2.8,1,4.4v3.4v4.4c0,0.8,0.1,1.5,0.4,2.1c0.3,0.6,0.7,1.2,1.2,1.7
		c1.1,1.1,4,1,4,1l0.2,6.4h-0.1h0.1c-1.6,0-3.1-0.3-4.5-0.9c-1.4-0.6-2.1,1.4-3.2,0.3l-1-1.1l-0.6-1.7c-1,1-2.2,1.8-3.7,2.4
		c-1.4,0.6-3,0.9-4.6,0.9H74.7v-5.8h34.9c0.8,0,1.6-0.1,2.3-0.4c0.7-0.3,1.4-0.7,1.9-1.2c1.1-1,1.7-2.2,1.7-3.7V172V168.6z"/>
	<rect x="146.5" y="139.4" class="st9" width="4.8" height="48.3"/>
	<path class="st9" d="M170.5,149.1v39.3c0,1.3-0.3,2.5-0.8,3.7c-0.5,1.2-1.2,2.2-2.1,3c-0.9,0.8-1.9,1.5-3.1,2
		c-1.2,0.5-2.4,0.7-3.7,0.7h0.1h-0.1v-4.8h0.1h-0.1c0.6,0,1.2-0.1,1.9-0.4c0.7-0.3,1.2-0.6,1.6-1c0.9-0.9,1.4-1.9,1.4-3.1v-39.3
		H170.5z"/>
	<path class="st4" d="M136,154.7L136,154.7l-2.7,0v25.7c-0.3,0.3-0.5,0.6-0.7,0.9h-5.9l-0.1,0.4h-5c-1.1,0-1.9,0.3-2.4,0.9
		c-0.5,0.6-0.8,1.3-0.8,2c0,0.8,0.3,1.5,0.8,2.1c0.5,0.6,1.3,0.9,2.4,0.9h10.4c1.9,0,3.6-0.6,5.1-1.7c1.5-1.2,2.2-3.1,2.2-5.8
		l0.1-25.5H136z"/>
	<path class="st6" d="M68.7,166.8c0,2-0.4,4.1-1.1,6.1c-0.7,2.1-1.8,3.9-3.3,5.6c-1.5,1.6-3.3,3-5.4,4c-2.2,1-4.6,1.6-7.5,1.6v-3.5
		c1.8,0,3.5-0.3,5.2-1c1.7-0.6,3.1-1.6,4.4-2.8c1.3-1.2,2.3-2.7,3.1-4.3c0.8-1.7,1.1-3.6,1.1-5.7c0-1.7-0.3-3.3-1-5
		c-0.6-1.7-1.6-3.1-2.8-4.4c-1.2-1.3-2.7-2.4-4.3-3.2c-1.7-0.8-3.6-1.2-5.7-1.2c-1.8,0-3.5,0.3-5.1,1c-1.6,0.6-3.1,1.6-4.4,2.8
		c-1.3,1.2-2.3,2.7-3.1,4.3c-0.8,1.7-1.2,3.6-1.2,5.7h-3.5c0-2.3,0.5-4.5,1.4-6.6c0.9-2.1,2.1-3.9,3.7-5.5c1.6-1.6,3.4-2.8,5.5-3.8
		c2.1-0.9,4.4-1.4,6.8-1.4c2.5,0,4.7,0.5,6.8,1.4c2.1,0.9,3.9,2.2,5.5,3.8c1.6,1.6,2.8,3.4,3.6,5.5
		C68.3,162.3,68.7,164.5,68.7,166.8z"/>
</g>
</svg>
