<?xml version="1.0" encoding="utf-8"?>
<!-- Generator: Adobe Illustrator 21.0.0, SVG Export Plug-In . SVG Version: 6.00 Build 0)  -->
<svg version="1.1" id="Calque_1" xmlns="http://www.w3.org/2000/svg" xmlns:xlink="http://www.w3.org/1999/xlink" x="0px" y="0px"
	 viewBox="0 0 800 600" style="enable-background:new 0 0 800 600;" xml:space="preserve">
<style type="text/css">
	.st0{clip-path:url(#SVGID_3_);fill:url(#SVGID_4_);}
	.st1{clip-path:url(#SVGID_3_);fill:url(#SVGID_5_);}
	.st2{clip-path:url(#SVGID_3_);fill:url(#SVGID_6_);}
	.st3{clip-path:url(#SVGID_3_);fill:url(#SVGID_7_);}
	.st4{clip-path:url(#SVGID_3_);fill:url(#SVGID_8_);}
	.st5{clip-path:url(#SVGID_3_);fill:url(#SVGID_9_);}
	.st6{clip-path:url(#SVGID_3_);fill:url(#SVGID_10_);}
	.st7{clip-path:url(#SVGID_3_);fill:url(#SVGID_11_);}
	.st8{clip-path:url(#SVGID_3_);fill:url(#SVGID_12_);}
	.st9{clip-path:url(#SVGID_3_);fill:url(#SVGID_13_);}
	.st10{clip-path:url(#SVGID_3_);fill:url(#SVGID_14_);}
	.st11{clip-path:url(#SVGID_3_);fill:url(#SVGID_15_);}
	.st12{clip-path:url(#SVGID_3_);fill:url(#SVGID_16_);}
	.st13{clip-path:url(#SVGID_3_);fill:url(#SVGID_17_);}
	.st14{clip-path:url(#SVGID_3_);fill:url(#SVGID_18_);}
	.st15{clip-path:url(#SVGID_3_);fill:url(#SVGID_19_);}
	.st16{clip-path:url(#SVGID_3_);fill:url(#SVGID_20_);}
	.st17{clip-path:url(#SVGID_3_);fill:url(#SVGID_21_);}
	.st18{clip-path:url(#SVGID_3_);fill:url(#SVGID_22_);}
	.st19{clip-path:url(#SVGID_3_);fill:url(#SVGID_23_);}
	.st20{clip-path:url(#SVGID_3_);fill:url(#SVGID_24_);}
	.st21{clip-path:url(#SVGID_3_);fill:url(#SVGID_25_);}
	.st22{clip-path:url(#SVGID_3_);fill:url(#SVGID_26_);}
	.st23{clip-path:url(#SVGID_3_);fill:url(#SVGID_27_);}
	.st24{clip-path:url(#SVGID_3_);fill:url(#SVGID_28_);}
	.st25{clip-path:url(#SVGID_3_);fill:url(#SVGID_29_);}
	.st26{clip-path:url(#SVGID_3_);fill:url(#SVGID_30_);}
	.st27{clip-path:url(#SVGID_3_);fill:url(#SVGID_31_);}
	.st28{clip-path:url(#SVGID_3_);fill:url(#SVGID_32_);}
	.st29{clip-path:url(#SVGID_3_);fill:url(#SVGID_33_);}
	.st30{clip-path:url(#SVGID_3_);fill:url(#SVGID_34_);}
	.st31{clip-path:url(#SVGID_3_);fill:url(#SVGID_35_);}
	.st32{clip-path:url(#SVGID_3_);fill:url(#SVGID_36_);}
	.st33{clip-path:url(#SVGID_3_);fill:url(#SVGID_37_);}
	.st34{clip-path:url(#SVGID_3_);fill:url(#SVGID_38_);}
	.st35{clip-path:url(#SVGID_3_);fill:url(#SVGID_39_);}
	.st36{clip-path:url(#SVGID_3_);fill:url(#SVGID_40_);}
	.st37{clip-path:url(#SVGID_3_);fill:url(#SVGID_41_);}
	.st38{clip-path:url(#SVGID_3_);fill:url(#SVGID_42_);}
	.st39{clip-path:url(#SVGID_3_);fill:url(#SVGID_43_);}
	.st40{clip-path:url(#SVGID_3_);fill:url(#SVGID_44_);}
	.st41{clip-path:url(#SVGID_3_);fill:url(#SVGID_45_);}
	.st42{clip-path:url(#SVGID_3_);fill:url(#SVGID_46_);}
	.st43{clip-path:url(#SVGID_3_);fill:url(#SVGID_47_);}
	.st44{clip-path:url(#SVGID_3_);fill:url(#SVGID_48_);}
	.st45{clip-path:url(#SVGID_3_);fill:url(#SVGID_49_);}
	.st46{fill:url(#SVGID_50_);}
	.st47{fill:url(#SVGID_51_);}
	.st48{fill:url(#SVGID_52_);}
	.st49{fill:url(#SVGID_53_);}
	.st50{fill:url(#SVGID_54_);}
	.st51{fill:url(#SVGID_55_);}
	.st52{fill:url(#SVGID_56_);}
	.st53{fill:url(#SVGID_57_);}
	.st54{fill:url(#SVGID_58_);}
	.st55{fill:url(#SVGID_59_);}
	.st56{fill:url(#SVGID_60_);}
	.st57{fill:#FFFFFF;}
	.st58{fill:#C5403B;}
	.st59{fill:none;stroke:#377D22;stroke-width:7.4939;stroke-miterlimit:10;}
	.st60{font-family:'Multicolore';}
	.st61{font-size:70.0225px;}
	.st62{font-size:56.5047px;}
</style>
<g>
	<g>
		<g>
			<g>
				<defs>
					<path id="SVGID_1_" d="M617.9,422.7c14.1-18.6,22.6-39.2,25.2-60.6c4.6-17.4,7-35.6,7-54.4c0-117.6-95.4-213-213-213
						s-213,95.4-213,213c0,117.6,95.4,213,213,213c48.4,0,93.1-16.2,128.8-43.4l77.1,16.8L617.9,422.7z"/>
				</defs>
				<linearGradient id="SVGID_2_" gradientUnits="userSpaceOnUse" x1="310.0821" y1="163.931" x2="651.8059" y2="550.6184">
					<stop  offset="0" style="stop-color:#377D22"/>
					<stop  offset="1" style="stop-color:#1D4410"/>
				</linearGradient>
				<use xlink:href="#SVGID_1_"  style="overflow:visible;fill:url(#SVGID_2_);"/>
				<clipPath id="SVGID_3_">
					<use xlink:href="#SVGID_1_"  style="overflow:visible;"/>
				</clipPath>
				<linearGradient id="SVGID_4_" gradientUnits="userSpaceOnUse" x1="294.6307" y1="177.5857" x2="636.3545" y2="564.2732">
					<stop  offset="0" style="stop-color:#377D22"/>
					<stop  offset="1" style="stop-color:#1D4410"/>
				</linearGradient>
				<polygon class="st0" points="408.5,94.7 224.1,309.6 224.1,94.7 				"/>
				<linearGradient id="SVGID_5_" gradientUnits="userSpaceOnUse" x1="294.5175" y1="177.6858" x2="636.2412" y2="564.3732">
					<stop  offset="0" style="stop-color:#377D22"/>
					<stop  offset="1" style="stop-color:#1D4410"/>
				</linearGradient>
				<polygon class="st1" points="422,94.7 224.1,325.3 224.1,309.6 408.5,94.7 				"/>
				<linearGradient id="SVGID_6_" gradientUnits="userSpaceOnUse" x1="294.4042" y1="177.7859" x2="636.128" y2="564.4733">
					<stop  offset="0" style="stop-color:#377D22"/>
					<stop  offset="1" style="stop-color:#1D4410"/>
				</linearGradient>
				<polygon class="st2" points="435.5,94.7 224.1,341.1 224.1,325.3 422,94.7 				"/>
				<linearGradient id="SVGID_7_" gradientUnits="userSpaceOnUse" x1="294.291" y1="177.886" x2="636.0147" y2="564.5734">
					<stop  offset="0" style="stop-color:#377D22"/>
					<stop  offset="1" style="stop-color:#1D4410"/>
				</linearGradient>
				<polygon class="st3" points="449.1,94.7 224.1,356.8 224.1,341.1 435.5,94.7 				"/>
				<linearGradient id="SVGID_8_" gradientUnits="userSpaceOnUse" x1="294.1777" y1="177.986" x2="635.9015" y2="564.6735">
					<stop  offset="0" style="stop-color:#377D22"/>
					<stop  offset="1" style="stop-color:#1D4410"/>
				</linearGradient>
				<polygon class="st4" points="462.6,94.7 224.1,372.6 224.1,356.8 449.1,94.7 				"/>
				<linearGradient id="SVGID_9_" gradientUnits="userSpaceOnUse" x1="294.0645" y1="178.0861" x2="635.7883" y2="564.7736">
					<stop  offset="0" style="stop-color:#377D22"/>
					<stop  offset="1" style="stop-color:#1D4410"/>
				</linearGradient>
				<polygon class="st5" points="476.1,94.7 224.1,388.3 224.1,372.6 462.6,94.7 				"/>
				<linearGradient id="SVGID_10_" gradientUnits="userSpaceOnUse" x1="293.9512" y1="178.1862" x2="635.675" y2="564.8737">
					<stop  offset="0" style="stop-color:#377D22"/>
					<stop  offset="1" style="stop-color:#1D4410"/>
				</linearGradient>
				<polygon class="st6" points="489.6,94.7 224.1,404.1 224.1,388.3 476.1,94.7 				"/>
				<linearGradient id="SVGID_11_" gradientUnits="userSpaceOnUse" x1="293.838" y1="178.2863" x2="635.5618" y2="564.9737">
					<stop  offset="0" style="stop-color:#377D22"/>
					<stop  offset="1" style="stop-color:#1D4410"/>
				</linearGradient>
				<polygon class="st7" points="503.1,94.7 224.1,419.8 224.1,404.1 489.6,94.7 				"/>
				<linearGradient id="SVGID_12_" gradientUnits="userSpaceOnUse" x1="293.7247" y1="178.3864" x2="635.4485" y2="565.0738">
					<stop  offset="0" style="stop-color:#377D22"/>
					<stop  offset="1" style="stop-color:#1D4410"/>
				</linearGradient>
				<polygon class="st8" points="516.6,94.7 224.1,435.6 224.1,419.8 503.1,94.7 				"/>
				<linearGradient id="SVGID_13_" gradientUnits="userSpaceOnUse" x1="295.725" y1="176.6187" x2="637.4488" y2="563.3061">
					<stop  offset="0" style="stop-color:#377D22"/>
					<stop  offset="1" style="stop-color:#1D4410"/>
				</linearGradient>
				<polygon class="st9" points="530.1,94.7 228.3,446.4 224.1,442.8 224.1,435.6 516.6,94.7 				"/>
				<linearGradient id="SVGID_14_" gradientUnits="userSpaceOnUse" x1="299.8048" y1="173.0133" x2="641.5286" y2="559.7007">
					<stop  offset="0" style="stop-color:#377D22"/>
					<stop  offset="1" style="stop-color:#1D4410"/>
				</linearGradient>
				<polygon class="st10" points="543.7,94.7 236.1,453.1 228.3,446.4 530.1,94.7 				"/>
				<linearGradient id="SVGID_15_" gradientUnits="userSpaceOnUse" x1="304.127" y1="169.1937" x2="645.8508" y2="555.8811">
					<stop  offset="0" style="stop-color:#377D22"/>
					<stop  offset="1" style="stop-color:#1D4410"/>
				</linearGradient>
				<polygon class="st11" points="557.2,94.7 243.9,459.8 236.1,453.1 543.7,94.7 				"/>
				<linearGradient id="SVGID_16_" gradientUnits="userSpaceOnUse" x1="305.7093" y1="167.7953" x2="647.433" y2="554.4828">
					<stop  offset="0" style="stop-color:#377D22"/>
					<stop  offset="1" style="stop-color:#1D4410"/>
				</linearGradient>
				<polygon class="st12" points="559.3,94.7 565.9,100.3 251.7,466.4 243.9,459.8 557.2,94.7 				"/>
				<linearGradient id="SVGID_17_" gradientUnits="userSpaceOnUse" x1="306.7654" y1="166.862" x2="648.4892" y2="553.5494">
					<stop  offset="0" style="stop-color:#377D22"/>
					<stop  offset="1" style="stop-color:#1D4410"/>
				</linearGradient>
				<polygon class="st13" points="565.9,100.3 573.7,107 259.5,473.1 251.7,466.4 				"/>
				<linearGradient id="SVGID_18_" gradientUnits="userSpaceOnUse" x1="307.8216" y1="165.9286" x2="649.5454" y2="552.6161">
					<stop  offset="0" style="stop-color:#377D22"/>
					<stop  offset="1" style="stop-color:#1D4410"/>
				</linearGradient>
				<polygon class="st14" points="573.7,107 581.4,113.6 267.2,479.8 259.5,473.1 				"/>
				<linearGradient id="SVGID_19_" gradientUnits="userSpaceOnUse" x1="308.8777" y1="164.9953" x2="650.6016" y2="551.6827">
					<stop  offset="0" style="stop-color:#377D22"/>
					<stop  offset="1" style="stop-color:#1D4410"/>
				</linearGradient>
				<polygon class="st15" points="581.4,113.6 589.2,120.3 275,486.5 267.2,479.8 				"/>
				<linearGradient id="SVGID_20_" gradientUnits="userSpaceOnUse" x1="309.9339" y1="164.062" x2="651.6577" y2="550.7494">
					<stop  offset="0" style="stop-color:#377D22"/>
					<stop  offset="1" style="stop-color:#1D4410"/>
				</linearGradient>
				<polygon class="st16" points="589.2,120.3 597,127 282.8,493.1 275,486.5 				"/>
				<linearGradient id="SVGID_21_" gradientUnits="userSpaceOnUse" x1="310.9901" y1="163.1286" x2="652.7139" y2="549.816">
					<stop  offset="0" style="stop-color:#377D22"/>
					<stop  offset="1" style="stop-color:#1D4410"/>
				</linearGradient>
				<polygon class="st17" points="597,127 604.8,133.7 290.6,499.8 282.8,493.1 				"/>
				<linearGradient id="SVGID_22_" gradientUnits="userSpaceOnUse" x1="312.0462" y1="162.1953" x2="653.77" y2="548.8827">
					<stop  offset="0" style="stop-color:#377D22"/>
					<stop  offset="1" style="stop-color:#1D4410"/>
				</linearGradient>
				<polygon class="st18" points="604.8,133.7 612.6,140.4 298.4,506.5 290.6,499.8 				"/>
				<linearGradient id="SVGID_23_" gradientUnits="userSpaceOnUse" x1="313.1024" y1="161.2619" x2="654.8262" y2="547.9493">
					<stop  offset="0" style="stop-color:#377D22"/>
					<stop  offset="1" style="stop-color:#1D4410"/>
				</linearGradient>
				<polygon class="st19" points="612.6,140.4 620.4,147 306.2,513.2 298.4,506.5 				"/>
				<linearGradient id="SVGID_24_" gradientUnits="userSpaceOnUse" x1="314.1585" y1="160.3286" x2="655.8823" y2="547.016">
					<stop  offset="0" style="stop-color:#377D22"/>
					<stop  offset="1" style="stop-color:#1D4410"/>
				</linearGradient>
				<polygon class="st20" points="620.4,147 628.1,153.7 313.9,519.9 306.2,513.2 				"/>
				<linearGradient id="SVGID_25_" gradientUnits="userSpaceOnUse" x1="315.2147" y1="159.3952" x2="656.9385" y2="546.0826">
					<stop  offset="0" style="stop-color:#377D22"/>
					<stop  offset="1" style="stop-color:#1D4410"/>
				</linearGradient>
				<polygon class="st21" points="628.1,153.7 635.9,160.4 326.8,520.7 314.9,520.7 313.9,519.9 				"/>
				<linearGradient id="SVGID_26_" gradientUnits="userSpaceOnUse" x1="319.146" y1="155.921" x2="660.8698" y2="542.6085">
					<stop  offset="0" style="stop-color:#377D22"/>
					<stop  offset="1" style="stop-color:#1D4410"/>
				</linearGradient>
				<polygon class="st22" points="635.9,160.4 643.7,167.1 340.3,520.7 326.8,520.7 				"/>
				<linearGradient id="SVGID_27_" gradientUnits="userSpaceOnUse" x1="323.374" y1="152.1847" x2="665.0978" y2="538.8721">
					<stop  offset="0" style="stop-color:#377D22"/>
					<stop  offset="1" style="stop-color:#1D4410"/>
				</linearGradient>
				<polygon class="st23" points="643.7,167.1 650.1,172.6 650.1,175.4 353.8,520.7 340.3,520.7 				"/>
				<linearGradient id="SVGID_28_" gradientUnits="userSpaceOnUse" x1="326.471" y1="149.4478" x2="668.1948" y2="536.1352">
					<stop  offset="0" style="stop-color:#377D22"/>
					<stop  offset="1" style="stop-color:#1D4410"/>
				</linearGradient>
				<polygon class="st24" points="650.1,191.1 367.3,520.7 353.8,520.7 650.1,175.4 				"/>
				<linearGradient id="SVGID_29_" gradientUnits="userSpaceOnUse" x1="326.3578" y1="149.5478" x2="668.0816" y2="536.2353">
					<stop  offset="0" style="stop-color:#377D22"/>
					<stop  offset="1" style="stop-color:#1D4410"/>
				</linearGradient>
				<polygon class="st25" points="650.1,206.9 380.8,520.7 367.3,520.7 650.1,191.1 				"/>
				<linearGradient id="SVGID_30_" gradientUnits="userSpaceOnUse" x1="326.2445" y1="149.6479" x2="667.9683" y2="536.3353">
					<stop  offset="0" style="stop-color:#377D22"/>
					<stop  offset="1" style="stop-color:#1D4410"/>
				</linearGradient>
				<polygon class="st26" points="650.1,222.6 394.3,520.7 380.8,520.7 650.1,206.9 				"/>
				<linearGradient id="SVGID_31_" gradientUnits="userSpaceOnUse" x1="326.1313" y1="149.748" x2="667.8551" y2="536.4354">
					<stop  offset="0" style="stop-color:#377D22"/>
					<stop  offset="1" style="stop-color:#1D4410"/>
				</linearGradient>
				<polygon class="st27" points="650.1,238.4 407.9,520.7 394.3,520.7 650.1,222.6 				"/>
				<linearGradient id="SVGID_32_" gradientUnits="userSpaceOnUse" x1="326.018" y1="149.8481" x2="667.7418" y2="536.5355">
					<stop  offset="0" style="stop-color:#377D22"/>
					<stop  offset="1" style="stop-color:#1D4410"/>
				</linearGradient>
				<polygon class="st28" points="650.1,254.1 421.4,520.7 407.9,520.7 650.1,238.4 				"/>
				<linearGradient id="SVGID_33_" gradientUnits="userSpaceOnUse" x1="325.9048" y1="149.9481" x2="667.6286" y2="536.6356">
					<stop  offset="0" style="stop-color:#377D22"/>
					<stop  offset="1" style="stop-color:#1D4410"/>
				</linearGradient>
				<polygon class="st29" points="650.1,269.9 434.9,520.7 421.4,520.7 650.1,254.1 				"/>
				<linearGradient id="SVGID_34_" gradientUnits="userSpaceOnUse" x1="325.7916" y1="150.0482" x2="667.5153" y2="536.7357">
					<stop  offset="0" style="stop-color:#377D22"/>
					<stop  offset="1" style="stop-color:#1D4410"/>
				</linearGradient>
				<polygon class="st30" points="650.1,285.6 448.4,520.7 434.9,520.7 650.1,269.9 				"/>
				<linearGradient id="SVGID_35_" gradientUnits="userSpaceOnUse" x1="325.6783" y1="150.1483" x2="667.4021" y2="536.8358">
					<stop  offset="0" style="stop-color:#377D22"/>
					<stop  offset="1" style="stop-color:#1D4410"/>
				</linearGradient>
				<polygon class="st31" points="650.1,301.4 461.9,520.7 448.4,520.7 650.1,285.6 				"/>
				<linearGradient id="SVGID_36_" gradientUnits="userSpaceOnUse" x1="325.5651" y1="150.2484" x2="667.2889" y2="536.9359">
					<stop  offset="0" style="stop-color:#377D22"/>
					<stop  offset="1" style="stop-color:#1D4410"/>
				</linearGradient>
				<polygon class="st32" points="650.1,317.1 475.4,520.7 461.9,520.7 650.1,301.4 				"/>
				<linearGradient id="SVGID_37_" gradientUnits="userSpaceOnUse" x1="325.4518" y1="150.3484" x2="667.1756" y2="537.0359">
					<stop  offset="0" style="stop-color:#377D22"/>
					<stop  offset="1" style="stop-color:#1D4410"/>
				</linearGradient>
				<polygon class="st33" points="650.1,332.9 488.9,520.7 475.4,520.7 650.1,317.1 				"/>
				<linearGradient id="SVGID_38_" gradientUnits="userSpaceOnUse" x1="325.3386" y1="150.4485" x2="667.0624" y2="537.136">
					<stop  offset="0" style="stop-color:#377D22"/>
					<stop  offset="1" style="stop-color:#1D4410"/>
				</linearGradient>
				<polygon class="st34" points="650.1,348.6 502.5,520.7 488.9,520.7 650.1,332.9 				"/>
				<linearGradient id="SVGID_39_" gradientUnits="userSpaceOnUse" x1="325.2253" y1="150.5486" x2="666.9491" y2="537.2361">
					<stop  offset="0" style="stop-color:#377D22"/>
					<stop  offset="1" style="stop-color:#1D4410"/>
				</linearGradient>
				<polygon class="st35" points="650.1,364.4 516,520.7 502.5,520.7 650.1,348.6 				"/>
				<linearGradient id="SVGID_40_" gradientUnits="userSpaceOnUse" x1="325.1121" y1="150.6487" x2="666.8359" y2="537.3361">
					<stop  offset="0" style="stop-color:#377D22"/>
					<stop  offset="1" style="stop-color:#1D4410"/>
				</linearGradient>
				<polygon class="st36" points="650.1,380.1 529.5,520.7 516,520.7 650.1,364.4 				"/>
				<linearGradient id="SVGID_41_" gradientUnits="userSpaceOnUse" x1="324.9988" y1="150.7488" x2="666.7202" y2="537.4335">
					<stop  offset="0" style="stop-color:#377D22"/>
					<stop  offset="1" style="stop-color:#1D4410"/>
				</linearGradient>
				<polygon class="st37" points="650.1,395.9 543,520.7 529.5,520.7 650.1,380.1 				"/>
				<linearGradient id="SVGID_42_" gradientUnits="userSpaceOnUse" x1="324.8856" y1="150.8488" x2="666.6094" y2="537.5363">
					<stop  offset="0" style="stop-color:#377D22"/>
					<stop  offset="1" style="stop-color:#1D4410"/>
				</linearGradient>
				<polygon class="st38" points="650.1,411.6 556.5,520.7 543,520.7 650.1,395.9 				"/>
				<linearGradient id="SVGID_43_" gradientUnits="userSpaceOnUse" x1="324.7723" y1="150.9489" x2="666.4962" y2="537.6364">
					<stop  offset="0" style="stop-color:#377D22"/>
					<stop  offset="1" style="stop-color:#1D4410"/>
				</linearGradient>
				<polygon class="st39" points="650.1,427.4 570,520.7 556.5,520.7 650.1,411.6 				"/>
				<linearGradient id="SVGID_44_" gradientUnits="userSpaceOnUse" x1="324.6591" y1="151.049" x2="666.3829" y2="537.7365">
					<stop  offset="0" style="stop-color:#377D22"/>
					<stop  offset="1" style="stop-color:#1D4410"/>
				</linearGradient>
				<polygon class="st40" points="650.1,443.1 583.5,520.7 570,520.7 650.1,427.4 				"/>
				<linearGradient id="SVGID_45_" gradientUnits="userSpaceOnUse" x1="324.5458" y1="151.1491" x2="666.2697" y2="537.8365">
					<stop  offset="0" style="stop-color:#377D22"/>
					<stop  offset="1" style="stop-color:#1D4410"/>
				</linearGradient>
				<polygon class="st41" points="650.1,458.9 597.1,520.7 583.5,520.7 650.1,443.1 				"/>
				<linearGradient id="SVGID_46_" gradientUnits="userSpaceOnUse" x1="324.4326" y1="151.2492" x2="666.1564" y2="537.9366">
					<stop  offset="0" style="stop-color:#377D22"/>
					<stop  offset="1" style="stop-color:#1D4410"/>
				</linearGradient>
				<polygon class="st42" points="650.1,474.6 610.6,520.7 597.1,520.7 650.1,458.9 				"/>
				<linearGradient id="SVGID_47_" gradientUnits="userSpaceOnUse" x1="324.3193" y1="151.3492" x2="666.0432" y2="538.0367">
					<stop  offset="0" style="stop-color:#377D22"/>
					<stop  offset="1" style="stop-color:#1D4410"/>
				</linearGradient>
				<polygon class="st43" points="650.1,490.3 624.1,520.7 610.6,520.7 650.1,474.6 				"/>
				<linearGradient id="SVGID_48_" gradientUnits="userSpaceOnUse" x1="324.2061" y1="151.4493" x2="665.9299" y2="538.1368">
					<stop  offset="0" style="stop-color:#377D22"/>
					<stop  offset="1" style="stop-color:#1D4410"/>
				</linearGradient>
				<polygon class="st44" points="650.1,506.1 637.6,520.7 624.1,520.7 650.1,490.3 				"/>
				<linearGradient id="SVGID_49_" gradientUnits="userSpaceOnUse" x1="324.0929" y1="151.5494" x2="665.8167" y2="538.2368">
					<stop  offset="0" style="stop-color:#377D22"/>
					<stop  offset="1" style="stop-color:#1D4410"/>
				</linearGradient>
				<polygon class="st45" points="637.6,520.7 650.1,506.1 650.1,520.7 				"/>
			</g>
		</g>
		<g>
			<g>
				<g>
					<g>
						<linearGradient id="SVGID_50_" gradientUnits="userSpaceOnUse" x1="154.6833" y1="301.2602" x2="496.4071" y2="687.9476">
							<stop  offset="0" style="stop-color:#377D22"/>
							<stop  offset="1" style="stop-color:#1D4410"/>
						</linearGradient>
						<path class="st46" d="M430.4,564c-59.9,0-117.2-21-163.2-60.3c-51.3-43.7-82.4-104.8-87.8-171.9l6.4-0.5
							c5.2,65.5,35.6,125,85.6,167.6c50,42.6,113.6,63.2,179,58l0.5,6.4C444,563.8,437.2,564,430.4,564z"/>
					</g>
					<g>
						<linearGradient id="SVGID_51_" gradientUnits="userSpaceOnUse" x1="154.7758" y1="301.1784" x2="496.4996" y2="687.8658">
							<stop  offset="0" style="stop-color:#377D22"/>
							<stop  offset="1" style="stop-color:#1D4410"/>
						</linearGradient>
						<path class="st47" d="M430.4,564.6c-59.8,0-117.9-21.5-163.6-60.5c-51.4-43.8-82.6-105-88-172.3l0-0.6l7.6-0.6l0,0.6
							c5.2,65.3,35.5,124.7,85.3,167.2c49.9,42.5,113.3,63.1,178.5,57.9l0.6,0l0.6,7.6l-0.6,0.1
							C444.1,564.4,437.2,564.6,430.4,564.6z M180.1,332.3c5.5,66.7,36.5,127.4,87.5,170.9c45.5,38.8,103.3,60.2,162.8,60.2
							c6.5,0,13.1-0.3,19.7-0.8l-0.4-5.1c-65.4,5-128.9-15.6-178.8-58.2c-49.9-42.6-80.4-102-85.7-167.4L180.1,332.3z"/>
					</g>
				</g>
				<g>
					<g>
						<linearGradient id="SVGID_52_" gradientUnits="userSpaceOnUse" x1="154.9024" y1="301.0665" x2="496.6262" y2="687.754">
							<stop  offset="0" style="stop-color:#377D22"/>
							<stop  offset="1" style="stop-color:#1D4410"/>
						</linearGradient>
						<path class="st48" d="M430.4,565.5c-60,0-118.3-21.5-164.2-60.7c-51.6-44-82.9-105.4-88.3-172.9l-0.1-1.5l9.3-0.7l0.1,1.5
							c5.2,65.1,35.4,124.2,85,166.6c49.7,42.4,112.9,62.9,177.9,57.7l1.5-0.1l0.7,9.3l-1.5,0.1
							C444.1,565.2,437.2,565.5,430.4,565.5z M181,333.1c5.6,66.2,36.5,126.3,87.1,169.5c50.1,42.7,115.1,64.2,181.1,59.3l-0.3-3.4
							c-65.3,4.8-128.7-15.9-178.6-58.5c-49.9-42.5-80.4-101.8-85.9-167.1L181,333.1z"/>
					</g>
					<g>
						<linearGradient id="SVGID_53_" gradientUnits="userSpaceOnUse" x1="154.9941" y1="300.9855" x2="496.7179" y2="687.673">
							<stop  offset="0" style="stop-color:#377D22"/>
							<stop  offset="1" style="stop-color:#1D4410"/>
						</linearGradient>
						<path class="st49" d="M430.4,566.1c-60.1,0-118.6-21.6-164.6-60.8c-51.7-44.1-83.1-105.6-88.5-173.3l-0.2-2.1l10.5-0.8
							l0.2,2.1C193,396,223.2,455,272.7,497.3c49.6,42.3,112.6,62.7,177.5,57.5l2.1-0.2l0.8,10.5l-2.1,0.2
							C444.2,565.8,437.2,566.1,430.4,566.1z M178.5,331l0.1,0.9c5.4,67.4,36.6,128.6,88.1,172.5c45.8,39,103.9,60.5,163.8,60.5
							c6.8,0,13.6-0.3,20.5-0.8l0.9-0.1l-0.6-8.1l-0.9,0.1c-65.2,5.2-128.5-15.3-178.4-57.8c-49.8-42.5-80.1-101.8-85.3-167
							l-0.1-0.8L178.5,331z M430.4,563.2c-59.6,0-116.8-21-162.6-60.1c-50.7-43.2-81.7-103.5-87.4-169.9l-0.1-0.6l4.6-0.4l0.1,0.6
							c5.6,65.1,36,124.3,85.7,166.7c49.7,42.4,113,63.1,178.2,58.3l0.6,0l0.4,4.6l-0.6,0C443,562.9,436.7,563.2,430.4,563.2z
							 M181.7,333.7c5.8,65.8,36.6,125.6,86.9,168.4c50.3,42.9,114.2,63.9,180,59.2l-0.2-2.2c-65.3,4.7-128.6-16.2-178.4-58.7
							c-49.8-42.5-80.4-101.7-86.1-166.9L181.7,333.7z"/>
					</g>
				</g>
			</g>
		</g>
		<g>
			<linearGradient id="SVGID_54_" gradientUnits="userSpaceOnUse" x1="392.041" y1="91.5022" x2="733.7648" y2="478.1896">
				<stop  offset="0" style="stop-color:#377D22"/>
				<stop  offset="1" style="stop-color:#1D4410"/>
			</linearGradient>
			<ellipse class="st50" cx="352.3" cy="46.5" rx="17" ry="17"/>
		</g>
		<g>
			<linearGradient id="SVGID_55_" gradientUnits="userSpaceOnUse" x1="352.9928" y1="126.0099" x2="694.7166" y2="512.6974">
				<stop  offset="0" style="stop-color:#377D22"/>
				<stop  offset="1" style="stop-color:#1D4410"/>
			</linearGradient>
			<ellipse class="st51" cx="297.7" cy="63.5" rx="12.6" ry="12.6"/>
		</g>
		<g>
			<linearGradient id="SVGID_56_" gradientUnits="userSpaceOnUse" x1="281.5984" y1="189.1026" x2="623.3222" y2="575.79">
				<stop  offset="0" style="stop-color:#377D22"/>
				<stop  offset="1" style="stop-color:#1D4410"/>
			</linearGradient>
			<ellipse class="st52" cx="224.1" cy="124.1" rx="8.7" ry="8.7"/>
		</g>
		<g>
			<linearGradient id="SVGID_57_" gradientUnits="userSpaceOnUse" x1="259.3007" y1="208.8076" x2="601.0245" y2="595.495">
				<stop  offset="0" style="stop-color:#377D22"/>
				<stop  offset="1" style="stop-color:#1D4410"/>
			</linearGradient>
			<path class="st53" d="M161.3,370c-19.2-73.3-6.4-152,35.1-215.7C232.6,98.7,287.6,58.5,351.5,41l1.6,5.8
				c-62.4,17.1-116.3,56.4-151.6,110.7c-40.6,62.4-53.1,139.2-34.3,210.9L161.3,370z"/>
		</g>
		<g>
			<linearGradient id="SVGID_58_" gradientUnits="userSpaceOnUse" x1="397.2357" y1="86.9115" x2="738.9595" y2="473.599">
				<stop  offset="0" style="stop-color:#377D22"/>
				<stop  offset="1" style="stop-color:#1D4410"/>
			</linearGradient>
			<ellipse class="st54" cx="389.4" cy="78" rx="24.8" ry="24.8"/>
		</g>
		<g>
			<linearGradient id="SVGID_59_" gradientUnits="userSpaceOnUse" x1="397.6403" y1="86.554" x2="739.3641" y2="473.2415">
				<stop  offset="0" style="stop-color:#377D22"/>
				<stop  offset="1" style="stop-color:#1D4410"/>
			</linearGradient>
			<path class="st55" d="M403.4,85.9c-13.7-21.5-34.8-37.2-59.5-44.2l1.2-4.3c25.7,7.3,47.7,23.7,62,46.1L403.4,85.9z"/>
		</g>
		<g>
			<linearGradient id="SVGID_60_" gradientUnits="userSpaceOnUse" x1="126.3005" y1="326.3427" x2="468.0243" y2="713.0301">
				<stop  offset="0" style="stop-color:#377D22"/>
				<stop  offset="1" style="stop-color:#1D4410"/>
			</linearGradient>
			<ellipse class="st56" cx="164.2" cy="369.2" rx="8.7" ry="8.7"/>
		</g>
	</g>
	<g>
		<path class="st57" d="M362.1,381.1h147.8c39.6,0,71.9-32.4,71.9-71.9v0c0-39.6-32.4-71.9-71.9-71.9H362.1
			c-39.6,0-71.9,32.4-71.9,71.9v0C290.1,348.7,322.5,381.1,362.1,381.1z"/>
		<g>
			<circle class="st58" cx="380.9" cy="311.6" r="24.7"/>
		</g>
		<g>
			<path class="st59" d="M523.9,320c0-13.6-11-24.7-24.7-24.7c-13.6,0-24.7,11-24.7,24.7"/>
			<line class="st59" x1="523.9" y1="318.5" x2="534.7" y2="292.1"/>
			<line class="st59" x1="509" y1="300.5" x2="516.5" y2="277.7"/>
		</g>
	</g>
	<text transform="matrix(1 0 0 1 345.0391 464.9844)" class="st57 st60 st61">3ziza</text>
	<text transform="matrix(1 0 0 1 358.1953 197.5547)" class="st57 st60 st62">Es2el</text>
</g>
</svg>